<ttFont>
          <CharString index="0">
            rmoveto
            201 146 170 188 179 -138 183 -206 -201 -148 -171 -189 -182 139 -178 207 hvcurveto
            -206 360 rmoveto
            117 73 120 134 128 79 -114 -123 -117 -73 -121 -134 -131 -76 115 123 vhcurveto
            return
          </CharString>
          <CharString index="1">
            171 103 127 144 146 -104 126 -170 -170 -105 -126 -146 -144 104 -127 171 hvcurveto
            -137 271 rmoveto
            91 60 67 77 77 60 -66 -91 -92 -60 -66 -77 -77 -60 65 92 vhcurveto
            return
          </CharString>
          <CharString index="2">
            -129 -43 112 119 hvcurveto
            362 -138 -362 vlineto
            -184 84 -169 227 219 91 159 194 vhcurveto
            362 -137 -362 vlineto
            -116 -42 -115 -132 vhcurveto
            return
          </CharString>
          <CharString index="3">
            rmoveto
            42 -62 -87 37 -99 hhcurveto
            -144 -115 -78 -145 -109 66 -45 135 -38 hvcurveto
            111 -31 73 -19 -61 vvcurveto
            -47 -39 -26 -75 -108 -107 63 24 -24 vhcurveto
            -61 -119 rlineto
            -58 82 110 -34 106 hhcurveto
            139 124 58 153 130 -88 44 -140 36 hvcurveto
            -107 28 -55 15 58 vvcurveto
            return
          </CharString>
          <CharString index="4">
            rmoveto
            130 82 64 102 -7 callgsubr
            hvcurveto
            -6 callgsubr
            41 35 18 45 49 50 -18 -40 53 vhcurveto
            54 81 rlineto
            50 -57 -70 22 -78 hhcurveto
            -117 -89 -66 -107 -80 50 -29 137 -37 hvcurveto
            82 -22 33 -12 -37 vvcurveto
            -37 -33 -21 -53 -60 -61 24 45 -63 vhcurveto
            -50 -84 rlineto
            -52 59 91 -29 87 hhcurveto
            return
          </CharString>
          <CharString index="5">
            rmoveto
            -125 hlineto
            -54 -119 86 -26 rlineto
            return
          </CharString>
          <CharString index="6">
            -39 5 32 -23 48 hhcurveto
            15 16 1 5 27 hvcurveto
            114 vlineto
            -23 15 callgsubr
            return
          </CharString>
          <CharString index="7">
            rmoveto
            85 63 85 -63 69 32 -106 101 rlineto
            -97 hlineto
            -106 -101 rlineto
            return
          </CharString>
          <CharString index="8">
            rmoveto
            119 -111 -119 vlineto
            303 hmoveto
            119 -111 -119 vlineto
            return
          </CharString>
          <CharString index="9">
            238 136 vlineto
            145 -238 rlineto
            155 hlineto
            -162 267 rlineto
            78 33 50 83 91 vvcurveto
            116 -95 120 -131 vhcurveto
            -314 -710 hlineto
            138 589 rmoveto
            167 hlineto
            49 47 -49 -66 -64 -39 -51 -51 hvcurveto
            -173 hlineto
            return
          </CharString>
          <CharString index="10">
            rmoveto
            -180 142 -186 202 -13 callgsubr
            vhcurveto
            -113 65 rlineto
            -77 -33 -77 -31 -65 hhcurveto
            -123 -85 114 126 113 68 123 138 63 75 -26 -80 36 hvcurveto
            106 73 rlineto
            92 -46 -100 63 -130 hhcurveto
            -221 -129 -181 -173 hvcurveto
            return
          </CharString>
          <CharString index="11">
            rmoveto
            -88 -227 -202 552 rlineto
            -148 hlineto
            287 -710 rlineto
            116 hlineto
            123 298 123 -298 rlineto
            116 hlineto
            289 710 rlineto
            -150 hlineto
            -201 -552 -90 227 121 323 rlineto
            -128 hlineto
            -80 -235 -80 235 rlineto
            -127 hlineto
            return
          </CharString>
          <CharString index="12">
            rmoveto
            66 26 -47 119 rlineto
            -105 hlineto
            -74 -145 rmoveto
            66 26 -48 119 rlineto
            -104 hlineto
            return
          </CharString>
          <CharString index="13">
            rmoveto
            -145 107 -127 170 115 87 57 79 36 vhcurveto
            -131 40 rlineto
            -35 -16 -45 -27 -48 hhcurveto
            -75 -62 66 92 93 60 64 77 45 40 -22 -38 22 hvcurveto
            131 40 rlineto
            80 -40 -83 54 -114 hhcurveto
            -171 -105 -125 -146 hvcurveto
            return
          </CharString>
          <CharString index="14">
            -48 -23 47 -61 hhcurveto
            -88 -29 -103 -25 hvcurveto
            74 hlineto
            3 3 45 45 vhcurveto
            return
          </CharString>
          <CharString index="15">
            30 26 -31 -43 4 hvcurveto
            71 hlineto
            77 -55 57 -76 -76 -55 -57 -77 vhcurveto
            72 hlineto
            return
          </CharString>
          <CharString index="16">
            -31 -28 34 40 hvcurveto
            -72 hlineto
            -77 55 -57 76 76 55 57 77 vhcurveto
            -71 hlineto
            return
          </CharString>
          <CharString index="17">
            rmoveto
            71 68 34 60 35 hvcurveto
            -66 vlineto
            -102 -73 -45 -84 -68 -64 30 49 -40 vhcurveto
            -73 -71 rlineto
            -69 56 75 -40 114 hhcurveto
            168 123 93 155 hvcurveto
            499 vlineto
            return
          </CharString>
          <CharString index="18">
            -152 104 -120 145 vhcurveto
            35 114 rmoveto
            -84 -61 68 87 84 56 76 81 54 59 -44 -58 22 hvcurveto
            -125 vlineto
            -51 -18 -58 -37 -51 hhcurveto
            endchar
          </CharString>
          <CharString index="19">
            rmoveto
            93 30 109 19 hvcurveto
            -74 hlineto
            -4 -5 -46 -48 vhcurveto
            return
          </CharString>
          <CharString index="20">
            hstem
            28 140 -99 callgsubr
            return
          </CharString>
          <CharString index="21">
            4 710 rmoveto
            257 -460 rlineto
            -250 137 248 vlineto
            258 462 rlineto
            -149 hlineto
            -178 -342 -175 342 rlineto
            return
          </CharString>
          <CharString index="22">
            -4 callgsubr
            -95 callgsubr
            return
          </CharString>
          <CharString index="23">
            rmoveto
            -49 39 -28 58 58 39 28 49 49 -39 28 -58 -58 -39 -28 -49 vhcurveto
            97 36 rmoveto
            23 18 -14 -22 -21 -20 -15 -21 -23 -17 16 20 22 18 14 22 hvcurveto
            return
          </CharString>
          <CharString index="24">
            -52 -9 121 212 101 166 119 hstemhm
            44 136 -114 136 200 137 -115 136 hintmask 11110010
            560 210 rmoveto
            82 -55 59 -58 29 vhcurveto
            hintmask 11101100
            51 23 41 54 57 vvcurveto
            128 -129 68 -108 -108 -128 -70 -127 -57 40 -52 49 -24 vhcurveto
            hintmask 11110010
            -52 -27 -59 -58 -80 vvcurveto
            -131 115 -93 142 141 118 87 132 vhcurveto
            -136 8 rmoveto
            -61 -59 -45 -63 -61 -61 42 64 64 57 42 64 62 61 -39 -67 vhcurveto
            hintmask 11101100
            -222 291 rmoveto
            49 45 33 54 55 46 -32 -49 -55 -54 -30 -46 -47 -53 29 55 vhcurveto
            endchar
          </CharString>
          <CharString index="25">
            -5 -107 callsubr
            return
          </CharString>
          <CharString index="26">
            -45 -20 -40 -29 -52 vvcurveto
            -73 78 -57 100 96 82 53 75 vhcurveto
            -81 9 rmoveto
            -35 -47 -23 -49 -47 -52 22 35 35 77 callsubr
            -22 -36 vhcurveto
            return
          </CharString>
          <CharString index="27">
            -176 rmoveto
            -11 27 36 -9 44 hhcurveto
            86 42 37 51 49 -38 21 -47 -10 -13 -1 -3 -9 hvcurveto
            return
          </CharString>
          <CharString index="28">
            0 -73 callsubr
            return
          </CharString>
          <CharString index="29">
            303 -10 rmoveto
            -106 callsubr
            return
          </CharString>
          <CharString index="30">
            438 94 -295 hlineto
            290 348 rlineto
            82 -421 -94 280 vlineto
            -292 -348 rlineto
            return
          </CharString>
          <CharString index="31">
            -28 88 callsubr
            256 110 103 -110 170 -134 -170 -69 -103 69 -301 vlineto
            -93 62 -36 74 57 24 callsubr
          </CharString>
          <CharString index="32">
            -100 callgsubr
            endchar
          </CharString>
          <CharString index="33">
            rmoveto
            88 76 36 72 47 hvcurveto
            3 -42 rlineto
            return
          </CharString>
          <CharString index="34">
            121 185 112 171 121 return
          </CharString>
          <CharString index="35">
            hstem
            -58 callgsubr
            vstem
            -70 callgsubr
            return
          </CharString>
          <CharString index="36">
            -82 -73 callgsubr
            return
          </CharString>
          <CharString index="37">
            -10 -69 callgsubr
            return
          </CharString>
          <CharString index="38">
            65 0 121 186 100 182 121 hstem
            79 138 331 139 vstem
            337 17 callsubr
            -303 -48 -100 48 -307 37 callgsubr
            186 139 100 -139 182 -57 callgsubr
          </CharString>
          <CharString index="39">
            rmoveto
            -104 hlineto
            -48 -119 66 -26 rlineto
            247 145 rmoveto
            -105 hlineto
            -47 -119 65 -26 rlineto
            return
          </CharString>
          <CharString index="40">
            563 121 -391 hlineto
            388 485 rlineto
            104 -549 return
          </CharString>
          <CharString index="41">
            -12 callsubr
            3 callsubr
            return
          </CharString>
          <CharString index="42">
            -212 rmoveto
            134 hlineto
            -9 261 rlineto
            -24 9 29 -35 52 hhcurveto
            70 69 60 48 23 hvcurveto
            2 -38 rlineto
            hintmask 10111010
            -40 2 34 -26 49 hhcurveto
            16 19 1 5 28 hvcurveto
            114 vlineto
            hintmask 11011100
            -27 52 callgsubr
            -53 -31 -49 hhcurveto
            -61 -29 41 80 hvcurveto
            299 -134 vlineto
            endchar
          </CharString>
          <CharString index="43">
            88 callgsubr
            39 vvcurveto
            68 -85 45 -77 -77 -85 -46 -68 -41 33 -26 36 -14 vhcurveto
            return
          </CharString>
          <CharString index="44">
            hvcurveto
            114 vlineto
            -23 1 return
          </CharString>
          <CharString index="45">
            16 21 -44 callsubr
            return
          </CharString>
          <CharString index="46">
            28 70 rlineto
            -42 3 -20 15 23 vvcurveto
            return
          </CharString>
          <CharString index="47">
            hmoveto
            -77 callsubr
            return
          </CharString>
          <CharString index="48">
            -125 8 callgsubr
            7 524 rmoveto
            186 -263 -189 -261 rlineto
            138 hlineto
            115 163 8 17 9 -17 116 -163 rlineto
            138 hlineto
            -190 261 187 263 rlineto
            -138 hlineto
            -112 -164 -10 -18 -8 18 -113 164 rlineto
            endchar
          </CharString>
          <CharString index="49">
            582 rmoveto
            -35 -25 -8 -10 -16 hvcurveto
            24 87 rlineto
            185 79 -243 hlineto
            -11 -65 -32 -116 -14 -72 rrcurveto
            70 hlineto
            27 17 39 18 35 hhcurveto
            41 47 -23 -49 -47 -42 -23 -53 -50 -42 18 30 -26 hvcurveto
            -48 -53 rlineto
            -44 30 61 -28 70 hhcurveto
            104 78 59 84 80 -71 56 -93 hvcurveto
            return
          </CharString>
          <CharString index="50">
            102 -27 104 -131 -91 -78 -40 -66 -39 vhcurveto
            return
          </CharString>
          <CharString index="51">
            1 -6 -7 0 -14 hhcurveto
            -56 -69 -48 -71 -37 hvcurveto
            return
          </CharString>
          <CharString index="52">
            49 callgsubr
            222 134 return
          </CharString>
          <CharString index="53">
            114 -89 -21 530 -20 return
          </CharString>
          <CharString index="54">
            -20 -78 callgsubr
            return
          </CharString>
          <CharString index="55">
            44 27 -45 60 hhcurveto
            endchar
          </CharString>
          <CharString index="56">
            -20 -72 callsubr
            return
          </CharString>
          <CharString index="57">
            -134 -75 -101 -136 vhcurveto
            -120 return
          </CharString>
          <CharString index="58">
            -117 -91 hlineto
            hintmask 11101100
            60 -38 -63 40 -80 hhcurveto
            -139 -106 -119 -151 -151 95 -122 134 hvcurveto
            50 114 rmoveto
            -84 -58 68 87 84 58 76 82 56 61 -46 -59 15 hvcurveto
            -124 vlineto
            -51 -30 -43 -35 -57 hhcurveto
            endchar
          </CharString>
          <CharString index="59">
            -29 callgsubr
            134 return
          </CharString>
          <CharString index="60">
            -99 callsubr
            endchar
          </CharString>
          <CharString index="61">
            rmoveto
            -137 -710 110 hlineto
            357 487 rlineto
            -487 137 710 -105 vlineto
            -362 -498 rlineto
            endchar
          </CharString>
          <CharString index="62">
            -48 callgsubr
            219 134 return
          </CharString>
          <CharString index="63">
            -21 177 97 436 -20 return
          </CharString>
          <CharString index="64">
            7 15 -15 vhcurveto
            -58 -91 rlineto
            -32 36 return
          </CharString>
          <CharString index="65">
            -53 callgsubr
            226 -20 hstem
            return
          </CharString>
          <CharString index="66">
            -21 710 -20 return
          </CharString>
          <CharString index="67">
            146 hlineto
            105 177 rlineto
            228 -177 478 121 -342 180 279 121 -279 167 333 121 -505 hlineto
            -133 -413 rmoveto
            159 258 rlineto
            -258 vlineto
            endchar
          </CharString>
          <CharString index="68">
            vmoveto
            -36 callgsubr
          </CharString>
          <CharString index="69">
            -102 callsubr
            endchar
          </CharString>
          <CharString index="70">
            -11 callgsubr
            -20 return
          </CharString>
          <CharString index="71">
            92 56 -18 -38 -34 -46 -18 -56 -64 -41 32 26 -14 hvcurveto
            -43 -58 rlineto
            -52 19 62 -27 83 hhcurveto
            endchar
          </CharString>
          <CharString index="72">
            114 365 -257 -101 143 -50 hlineto
            return
          </CharString>
          <CharString index="73">
            -5 callsubr
            195 hmoveto
            -66 callsubr
            return
          </CharString>
          <CharString index="74">
            92 56 -18 -38 -34 -46 -17 -56 -64 -41 31 26 -14 hvcurveto
            -43 -59 42 callsubr
            return
          </CharString>
          <CharString index="75">
            -61 callgsubr
            226 16 callgsubr
            hintmask 10111100
            return
          </CharString>
          <CharString index="76">
            rmoveto
            72 71 35 66 39 hvcurveto
            3 -33 rlineto
            return
          </CharString>
          <CharString index="77">
            122 475 123 return
          </CharString>
          <CharString index="78">
            -196 126 return
          </CharString>
          <CharString index="79">
            hmoveto
            710 -147 vlineto
            -212 -404 -210 404 rlineto
            -148 -710 138 470 hlineto
            183 -350 rlineto
            75 hlineto
            183 350 rlineto
            -470 vlineto
            endchar
          </CharString>
          <CharString index="80">
            -136 316 rmoveto
            return
          </CharString>
          <CharString index="81">
            rmoveto
            -137 -710 137 294 69 hlineto
            228 -294 rlineto
            154 hlineto
            -278 367 255 343 rlineto
            -156 hlineto
            -216 -292 rlineto
            -56 hlineto
            endchar
          </CharString>
          <CharString index="82">
            192 -7 rmoveto
            88 47 49 128 59 hvcurveto
            250 540 rlineto
            -145 hlineto
            -162 -383 -174 383 rlineto
            -149 hlineto
            261 -522 rlineto
            -57 -21 return
          </CharString>
          <CharString index="83">
            97 -121 3 callsubr
            return
          </CharString>
          <CharString index="84">
            40 28 34 31 vhcurveto
            return
          </CharString>
          <CharString index="85">
            -209 301 195 222 rlineto
            -143 hlineto
            -210 -236 rlineto
            443 -134 -730 134 156 vlineto
            72 71 152 -227 rlineto
            endchar
          </CharString>
          <CharString index="86">
            32 48 33 18 14 hvcurveto
            -261 vlineto
            return
          </CharString>
          <CharString index="87">
            9 callsubr
            137 return
          </CharString>
          <CharString index="88">
            698 -93 callgsubr
            -139 -730 rmoveto
            438 94 -295 hlineto
            290 348 rlineto
            82 -421 return
          </CharString>
          <CharString index="89">
            -78 78 251 -20 hstemhm
            245 76 hintmask 10110000
            321 return
          </CharString>
          <CharString index="90">
            122 593 -20 return
          </CharString>
          <CharString index="91">
            67 -21 431 -20 hstem
            35 223 rmoveto
            264 -177 rlineto
            110 vlineto
            -157 103 157 109 rlineto
            109 vlineto
            -264 -189 rlineto
            return
          </CharString>
          <CharString index="92">
            rmoveto
            131 80 111 102 92 -72 122 -139 -131 -82 -112 -102 -94 72 -119 141 hvcurveto
            -131 213 rmoveto
            57 40 return
          </CharString>
          <CharString index="93">
            30 -6 122 476 122 return
          </CharString>
          <CharString index="94">
            134 -60 60 hstemhm
            return
          </CharString>
          <CharString index="95">
            524 -134 return
          </CharString>
          <CharString index="96">
            -49 callgsubr
            226 -20 hstemhm
            29 5 callsubr
            hintmask 11011110
            return
          </CharString>
          <CharString index="97">
            93 -2 callgsubr
            return
          </CharString>
          <CharString index="98">
            36 120 rlineto
            137 -135 -135 40 vlineto
            -22 -122 rlineto
            return
          </CharString>
          <CharString index="99">
            -30 callgsubr
            -9 -20 return
          </CharString>
          <CharString index="100">
            121 hstem
            -58 callgsubr
            return
          </CharString>
          <CharString index="101">
            21 -12 callgsubr
            return
          </CharString>
          <CharString index="102">
            134 vstem
            return
          </CharString>
          <CharString index="103">
            -82 rmoveto
            -84 callgsubr
            return
          </CharString>
          <CharString index="104">
            59 callsubr
            28 return
          </CharString>
          <CharString index="105">
            38 46 46 32 39 39 38 33 -38 -47 -45 -32 -39 -39 hvcurveto
            return
          </CharString>
          <CharString index="106">
            114 -90 -21 426 40 callsubr
            return
          </CharString>
          <CharString index="107">
            hstemhm
            25 127 return
          </CharString>
          <CharString index="108">
            rmoveto
            -87 callgsubr
            endchar
          </CharString>
          <CharString index="109">
            606 -21 145 -20 hstem
            return
          </CharString>
          <CharString index="110">
            -524 vlineto
            return
          </CharString>
          <CharString index="111">
            hstemhm
            278 95 -81 81 hintmask 11110000
            192 return
          </CharString>
          <CharString index="112">
            137 273 28 callgsubr
            return
          </CharString>
          <CharString index="113">
            21 40 callgsubr
            return
          </CharString>
          <CharString index="114">
            -43 -8 124 478 121 return
          </CharString>
          <CharString index="115">
            -76 callgsubr
            hstem
            return
          </CharString>
          <CharString index="116">
            28 138 274 return
          </CharString>
          <CharString index="117">
            -431 242 151 hstem
            58 110 vstem
            168 242 14 callsubr
          </CharString>
          <CharString index="118">
            -50 callsubr
            468 -57 callgsubr
          </CharString>
          <CharString index="119">
            -87 186 rmoveto
            61 38 42 49 49 37 -42 -60 -60 -37 -43 -49 -49 -38 43 59 vhcurveto
            endchar
          </CharString>
          <CharString index="120">
            -107 -100 -65 -42 -27 -21 vhcurveto
            51 -58 rlineto
            23 23 42 return
          </CharString>
          <CharString index="121">
            rmoveto
            151 -110 -151 vlineto
            endchar
          </CharString>
          <CharString index="122">
            hstem
            31 82 261 81 vstem
            244 return
          </CharString>
          <CharString index="123">
            53 callgsubr
            28 38 17 44 42 40 -17 return
          </CharString>
          <CharString index="124">
            hmoveto
            213 137 141 215 196 -118 158 -232 hvcurveto
            -258 return
          </CharString>
          <CharString index="125">
            -53 214 121 hstem
            546 214 rmoveto
            121 -488 -121 vlineto
            endchar
          </CharString>
          <CharString index="126">
            -136 316 1 callsubr
          </CharString>
          <CharString index="127">
            -92 -73 -67 -85 -84 73 -67 92 hvcurveto
            67 vmoveto
            return
          </CharString>
          <CharString index="128">
            102 94 114 -78 114 hstemhm
            93 134 return
          </CharString>
          <CharString index="129">
            0 43 callgsubr
            return
          </CharString>
          <CharString index="130">
            rmoveto
            50 79 callsubr
            return
          </CharString>
          <CharString index="131">
            55 20 16 36 vhcurveto
            endchar
          </CharString>
          <CharString index="132">
            -133 -408 -146 408 85 callgsubr
            return
          </CharString>
          <CharString index="133">
            -29 callsubr
            91 -21 return
          </CharString>
          <CharString index="134">
            121 468 121 return
          </CharString>
          <CharString index="135">
            315 114 -9 -20 return
          </CharString>
          <CharString index="136">
            240 hlineto
            111 84 63 117 115 -87 63 -113 hvcurveto
            -102 return
          </CharString>
          <CharString index="137">
            rmoveto
            -42 callgsubr
            return
          </CharString>
          <CharString index="138">
            307 103 170 -20 hstemhm
            91 134 return
          </CharString>
          <CharString index="139">
            39 46 -15 -32 -36 -54 -16 -81 hvcurveto
            -23 return
          </CharString>
          <CharString index="140">
            215 84 -215 82 -134 -82 -77 -84 77 -564 134 return
          </CharString>
          <CharString index="141">
            61 hhcurveto
            117 74 83 150 124 -71 73 -110 -102 -78 return
          </CharString>
          <CharString index="142">
            310 0 121 56 120 4 121 167 121 return
          </CharString>
          <CharString index="143">
            30 -26 hvcurveto
            -47 -53 rlineto
            -44 30 61 -27 70 hhcurveto
            103 78 58 return
          </CharString>
          <CharString index="144">
            51 19 27 -4 -10 20 vhcurveto
            -6 -12 -3 -54 -14 vvcurveto
            endchar
          </CharString>
          <CharString index="145">
            -41 33 -26 36 -14 vhcurveto
            hintmask 11110010
            -45 return
          </CharString>
          <CharString index="146">
            hvcurveto
            -179 -74 rmoveto
            -56 -49 34 40 return
          </CharString>
          <CharString index="147">
            114 197 78 callgsubr
            return
          </CharString>
          <CharString index="148">
            46 callgsubr
            7 -20 return
          </CharString>
          <CharString index="149">
            rlineto
            -51 19 62 -28 83 hhcurveto
            return
          </CharString>
          <CharString index="150">
            -394 134 394 return
          </CharString>
          <CharString index="151">
            -78 -78 229 78 hlineto
            return
          </CharString>
          <CharString index="152">
            -21 589 121 return
          </CharString>
          <CharString index="153">
            -196 50 66 42 return
          </CharString>
          <CharString index="154">
            121 589 -20 return
          </CharString>
          <CharString index="155">
            -196 116 return
          </CharString>
          <CharString index="156">
            -73 callsubr
            hstem
            74 138 return
          </CharString>
          <CharString index="157">
            13 8 -14 hvcurveto
            -18 -114 rlineto
            -18 27 47 -8 28 hhcurveto
            return
          </CharString>
          <CharString index="158">
            -22 -10 114 -83 -21 419 114 197 -20 hstemhm
            return
          </CharString>
          <CharString index="159">
            rmoveto
            -352 -524 133 413 219 hlineto
            endchar
          </CharString>
          <CharString index="160">
            -52 -44 30 35 hvcurveto
            -82 hlineto
            -83 1 72 -54 105 hhcurveto
            return
          </CharString>
          <CharString index="161">
            42 -6 122 191 111 174 122 hstem
            return
          </CharString>
          <CharString index="162">
            730 rmoveto
            -151 hlineto
            7 -46 -35 -73 86 -26 rlineto
            return
          </CharString>
          <CharString index="163">
            -339 -8 115 623 -20 return
          </CharString>
          <CharString index="164">
            hstemhm
            -54 callgsubr
            return
          </CharString>
          <CharString index="165">
            hstemhm
            32 139 396 114 return
          </CharString>
          <CharString index="166">
            197 -20 hstem
            return
          </CharString>
          <CharString index="167">
            129 228 134 -112 148 hintmask 11011010
            return
          </CharString>
          <CharString index="168">
            -10 67 169 67 124 67 169 67 hstem
            return
          </CharString>
          <CharString index="169">
            -76 callgsubr
            97 -33 callgsubr
            return
          </CharString>
          <CharString index="170">
            -26 -20 vhcurveto
            69 1 45 40 68 hhcurveto
            44 42 -17 return
          </CharString>
          <CharString index="171">
            -196 rmoveto
            -61 callsubr
            return
          </CharString>
          <CharString index="172">
            rmoveto
            92 89 37 82 54 -40 46 -65 9 hvcurveto
            59 return
          </CharString>
          <CharString index="173">
            162 155 207 206 -162 154 return
          </CharString>
          <CharString index="174">
            16 hvcurveto
            -262 -97 -78 266 78 vlineto
            endchar
          </CharString>
          <CharString index="175">
            -26 callgsubr
            vstem
            return
          </CharString>
          <CharString index="176">
            -40 -34 -49 -109 vvcurveto
            return
          </CharString>
          <CharString index="177">
            hstem
            63 133 return
          </CharString>
          <CharString index="178">
            hvcurveto
            -115 32 rlineto
            -43 -17 -54 -28 -53 hhcurveto
            return
          </CharString>
          <CharString index="179">
            145 rlineto
            -187 87 299 -129 vlineto
            return
          </CharString>
          <CharString index="180">
            0 94 -94 121 309 94 65 121 return
          </CharString>
          <CharString index="181">
            0 117 232 111 return
          </CharString>
          <CharString index="182">
            51 142 243 147 return
          </CharString>
          <CharString index="183">
            40 125 177 129 return
          </CharString>
          <CharString index="184">
            47 24 51 48 49 return
          </CharString>
          <CharString index="185">
            106 hstem
            68 121 return
          </CharString>
          <CharString index="186">
            -36 32 -50 21 vhcurveto
            return
          </CharString>
          <CharString index="187">
            hstemhm
            -58 callgsubr
            return
          </CharString>
          <CharString index="188">
            111 -26 134 -27 111 hintmask 11110100
            return
          </CharString>
          <CharString index="189">
            103 76 59 111 107 -79 60 -105 hvcurveto
            return
          </CharString>
          <CharString index="190">
            67 33 265 10 79 rcurveline
            117 hlineto
            return
          </CharString>
          <CharString index="191">
            113 315 114 hstem
            28 138 return
          </CharString>
          <CharString index="192">
            hhcurveto
            -131 -92 -69 -100 -95 77 -71 102 return
          </CharString>
          <CharString index="193">
            -140 42 vlineto
            -27 -119 rlineto
            endchar
          </CharString>
          <CharString index="194">
            -121 -559 vlineto
            endchar
          </CharString>
          <CharString index="195">
            -22 14 37 hvcurveto
            return
          </CharString>
        <CharString name=".notdef">
          -656 endchar
        </CharString>
        <CharString name="A">
          -62 callsubr
          hstem
          -103 callgsubr
          endchar
        </CharString>
        <CharString name="A.sc">
          -63 21 -21 131 105 323 -20 hstem
          132 hmoveto
          56 131 rlineto
          217 hlineto
          56 -131 rlineto
          128 hlineto
          -243 559 rlineto
          -99 hlineto
          -244 -559 rlineto
          373 236 rmoveto
          -161 hlineto
          82 176 rlineto
          endchar
        </CharString>
        <CharString name="AE">
          35 callsubr
          hstem
          444 146 vstem
          -25 hmoveto
          -40 callsubr
        </CharString>
        <CharString name="AEacute">
          35 callsubr
          205 -20 hstem
          444 146 vstem
          702 915 -102 callsubr
          -634 -770 rmoveto
          -40 callsubr
        </CharString>
        <CharString name="Aacute">
          -62 callsubr
          225 -20 hstem
          -103 callgsubr
          30 641 -38 callsubr
        </CharString>
        <CharString name="Abreve">
          -62 callsubr
          91 -17 callgsubr
          hintmask 11110000
          -103 callgsubr
          -98 567 rmoveto
          hintmask 11101000
          -91 callsubr
          hintmask 11110000
          -56 callgsubr
        </CharString>
        <CharString name="Acircumflex">
          -62 callsubr
          225 -20 hstem
          -103 callgsubr
          -183 508 -52 callgsubr
        </CharString>
        <CharString name="Adblgrave">
          -62 callsubr
          227 -20 hstem
          -103 callgsubr
          -35 498 12 callgsubr
        </CharString>
        <CharString name="Adieresis">
          -62 callsubr
          100 119 hstem
          185 68 callsubr
          -103 callgsubr
          -139 516 -47 callsubr
        </CharString>
        <CharString name="Agrave">
          -62 callsubr
          226 -20 hstem
          -103 callgsubr
          -133 497 -85 callgsubr
        </CharString>
        <CharString name="Ainvertedbreve">
          -62 callsubr
          165 60 hstem
          -103 callgsubr
          -98 581 rmoveto
          -92 callsubr
          87 callgsubr
        </CharString>
        <CharString name="Amacron">
          -62 callsubr
          128 83 hstem
          -103 callgsubr
          53 544 -37 callgsubr
        </CharString>
        <CharString name="Aogonek">
          22 -175 -21 217 -44 callsubr
          hstem
          510 81 vstem
          625 64 callsubr
          26 25 28 52 31 vhcurveto
          -270 710 rlineto
          -122 hlineto
          -271 -710 rlineto
          142 hlineto
          65 177 rlineto
          248 hlineto
          66 -177 rlineto
          65 hlineto
          -54 -34 -27 -38 -37 -43 callgsubr
          -390 470 rmoveto
          102 279 98 -279 rlineto
          endchar
        </CharString>
        <CharString name="Aring">
          -62 callsubr
          71 41 72 41 hstem
          239 57 81 56 vstem
          -103 callgsubr
          -196 564 -84 callsubr
          endchar
        </CharString>
        <CharString name="Aringacute">
          -62 callsubr
          92 136 hstem
          239 57 81 56 vstem
          475 918 rmoveto
          -125 hlineto
          -39 -97 rlineto
          -44 -7 -28 -27 -41 vvcurveto
          -25 10 -20 18 -13 vhcurveto
          -262 -688 rlineto
          142 hlineto
          65 177 rlineto
          248 hlineto
          66 -177 rlineto
          142 hlineto
          -262 688 rlineto
          17 13 10 20 25 vvcurveto
          28 -13 21 -22 13 vhcurveto
          -163 -534 rmoveto
          102 279 98 -279 rlineto
          -99 508 rmoveto
          23 18 -14 -22 -21 -20 -15 -21 -23 -17 16 20 22 18 14 22 hvcurveto
          endchar
        </CharString>
        <CharString name="Atilde">
          -62 callsubr
          97 -33 callgsubr
          hintmask 11110100
          -103 callgsubr
          -35 513 -88 callsubr
          hintmask 11101000
          -93 callsubr
          hintmask 11110100
          -52 callsubr
        </CharString>
        <CharString name="B">
          24 0 117 187 109 179 118 80 callsubr
          268 136 -109 139 hintmask 11110100
          646 183 rmoveto
          93 -51 64 -81 24 vhcurveto
          hintmask 11111000
          66 29 36 67 69 vvcurveto
          89 -62 92 -100 vhcurveto
          -380 -710 343 hlineto
          hintmask 11110100
          125 104 64 119 hvcurveto
          -139 26 rmoveto
          -51 -40 -41 -50 vhcurveto
          -205 187 212 hlineto
          47 36 -43 -52 hvcurveto
          -105 383 rmoveto
          hintmask 11111000
          44 34 -35 -54 -56 -38 -34 -46 hvcurveto
          -184 179 hlineto
          endchar
        </CharString>
        <CharString name="B.sc">
          -60 0 102 133 95 125 104 hstemhm
          68 121 227 120 -96 122 hintmask 11110100
          562 143 rmoveto
          75 -44 50 -69 19 vhcurveto
          hintmask 11111000
          56 23 31 52 53 vvcurveto
          71 -54 73 -85 vhcurveto
          -329 -559 296 hlineto
          hintmask 11110100
          108 90 49 94 hvcurveto
          -122 25 rmoveto
          -38 -34 -28 -42 vhcurveto
          -175 133 181 hlineto
          40 30 -31 -36 hvcurveto
          -89 287 rmoveto
          hintmask 11111000
          36 29 -23 -39 -41 -32 -22 -38 hvcurveto
          -157 125 hlineto
          endchar
        </CharString>
        <CharString name="C">
          -14 callsubr
          89 callgsubr
          vstem
          31 360 -97 callsubr
          endchar
        </CharString>
        <CharString name="C.sc">
          -63 -5 108 351 108 hstem
          32 122 vstem
          32 284 rmoveto
          -143 120 -146 172 98 112 47 83 38 vhcurveto
          -100 59 rlineto
          -58 -27 -64 -23 -53 hhcurveto
          -103 -71 83 94 84 58 90 114 51 63 -18 -61 29 hvcurveto
          93 65 rlineto
          73 -38 -85 49 -110 hhcurveto
          -188 -109 -142 -136 hvcurveto
          endchar
        </CharString>
        <CharString name="CR">
          -656 endchar
        </CharString>
        <CharString name="Cacute">
          -14 callsubr
          201 -20 89 callgsubr
          vstem
          510 915 -102 callsubr
          -386 -410 -97 callsubr
          endchar
        </CharString>
        <CharString name="Ccaron">
          -14 callsubr
          0 68 81 callgsubr
          31 140 hintmask 10111000
          230 883 -93 callgsubr
          -269 -555 rmoveto
          -180 142 -186 202 -13 callgsubr
          vhcurveto
          -113 65 rlineto
          -77 -33 -77 -31 -65 hhcurveto
          -123 -85 114 126 hvcurveto
          hintmask 11011000
          113 68 123 138 63 75 -26 -80 36 vhcurveto
          106 73 rlineto
          92 -46 -100 63 -130 hhcurveto
          -221 -129 -181 -173 hvcurveto
          endchar
        </CharString>
        <CharString name="Ccedilla">
          28 46 callsubr
          33 121 476 122 hstem
          29 140 261 63 vstem
          258 -80 callsubr
          24 37 108 8 116 58 41 98 rlinecurve
          -113 65 rlineto
          -77 -33 -77 -31 -65 hhcurveto
          -123 -85 114 126 113 68 123 138 63 75 -26 -80 36 hvcurveto
          106 73 rlineto
          92 -46 -100 63 -130 hhcurveto
          -221 -129 -181 -173 -171 128 -176 185 -17 hvcurveto
          -44 -88 -68 callgsubr
        </CharString>
        <CharString name="Ccircumflex">
          -14 callsubr
          201 -20 89 callgsubr
          vstem
          294 782 -100 callsubr
          -193 -454 -97 callsubr
          endchar
        </CharString>
        <CharString name="Cdotaccent">
          -14 callsubr
          75 126 89 callgsubr
          151 121 vstem
          31 360 -97 callsubr
          412 429 -90 callgsubr
          endchar
        </CharString>
        <CharString name="D">
          60 2 callgsubr
          hstem
          74 138 331 139 vstem
          332 hmoveto
          -84 callgsubr
          11 callsubr
        </CharString>
        <CharString name="D.sc">
          -22 0 106 347 78 callsubr
          288 123 vstem
          294 hmoveto
          185 121 111 170 154 -104 124 -202 hvcurveto
          -226 -559 hlineto
          409 281 rmoveto
          -101 -64 -74 -119 vhcurveto
          -105 347 105 hlineto
          116 67 -71 -101 hvcurveto
          endchar
        </CharString>
        <CharString name="Dcaron">
          60 2 callgsubr
          0 72 133 9 callgsubr
          331 139 hintmask 10111100
          175 883 -93 callgsubr
          87 -915 rmoveto
          -84 callgsubr
          -134 -75 -101 -136 vhcurveto
          -120 hlineto
          hintmask 11011100
          468 120 vlineto
          134 77 -96 -137 hvcurveto
          endchar
        </CharString>
        <CharString name="Dcroat">
          -69 callsubr
        </CharString>
        <CharString name="Ddotbelow">
          60 -29 callsubr
          70 121 468 -7 callsubr
          69 121 141 139 vstem
          402 -31 callgsubr
          51 196 rmoveto
          -84 callgsubr
          11 callsubr
        </CharString>
        <CharString name="Delta">
          -28 22 callsubr
          371 710 rmoveto
          -112 hlineto
          -252 -606 rlineto
          -104 615 104 vlineto
          -475 56 callgsubr
        </CharString>
        <CharString name="E">
          -55 0 49 callsubr
          vstem
          212 121 rmoveto
          185 299 112 -299 171 346 121 -484 -710 493 121 vlineto
          endchar
        </CharString>
        <CharString name="E.sc">
          -121 0 106 129 99 119 78 callsubr
          vstem
          189 106 rmoveto
          129 261 99 -261 119 302 106 -423 -559 431 106 vlineto
          endchar
        </CharString>
        <CharString name="Eacute">
          -55 -79 callsubr
          205 47 callgsubr
          vstem
          454 915 -102 callsubr
          -149 -649 rmoveto
          185 299 112 -299 171 346 121 -484 -710 493 121 vlineto
          endchar
        </CharString>
        <CharString name="Ebreve">
          -55 -79 callsubr
          71 -17 callgsubr
          74 138 hintmask 11110100
          212 121 rmoveto
          185 299 112 -299 171 346 121 -484 -710 493 121 vlineto
          -241 720 rmoveto
          hintmask 11101100
          -91 callsubr
          hintmask 11110100
          -56 callgsubr
        </CharString>
        <CharString name="Ecaron">
          -55 0 121 0 185 0 112 0 171 0 121 0 72 133 9 callgsubr
          hintmask 01010111
          171 883 -93 callgsubr
          -29 -794 rmoveto
          185 299 vlineto
          hintmask 10101011
          112 -299 171 346 121 -484 -710 493 121 vlineto
          endchar
        </CharString>
        <CharString name="Ecircumflex">
          -55 -79 callsubr
          205 47 callgsubr
          vstem
          241 782 -100 callsubr
          41 -693 rmoveto
          185 299 112 -299 171 346 121 -484 -710 493 121 vlineto
          endchar
        </CharString>
        <CharString name="Edblgrave">
          -55 -79 callsubr
          207 47 callgsubr
          vstem
          385 772 -95 callsubr
          73 -796 rmoveto
          185 299 112 -299 171 346 121 -484 -710 493 121 vlineto
          endchar
        </CharString>
        <CharString name="Edieresis">
          -55 -79 callsubr
          80 119 80 callsubr
          -38 -26 callgsubr
          hintmask 11110110
          285 790 -99 callsubr
          hintmask 11111010
          -154 -669 rmoveto
          185 299 112 -299 171 346 121 -484 -710 493 121 vlineto
          endchar
        </CharString>
        <CharString name="Edotaccent">
          -55 -79 callsubr
          79 126 hstem
          -58 callgsubr
          54 121 vstem
          212 121 rmoveto
          185 299 112 -299 171 346 121 -484 -710 493 121 vlineto
          -180 668 -90 callgsubr
          endchar
        </CharString>
        <CharString name="Edotbelow">
          -55 -29 callsubr
          70 49 callsubr
          47 121 vstem
          212 121 rmoveto
          185 299 112 -299 171 346 121 -484 -710 493 121 vlineto
          -187 -317 -90 callgsubr
          endchar
        </CharString>
        <CharString name="Egrave">
          -55 -79 callsubr
          206 47 callgsubr
          vstem
          212 121 rmoveto
          185 299 112 -299 171 346 121 -484 -710 493 121 vlineto
          -276 650 -85 callgsubr
        </CharString>
        <CharString name="Einvertedbreve">
          -55 -79 callsubr
          71 -13 callsubr
          74 138 hintmask 11101100
          324 855 rmoveto
          hintmask 11110100
          -92 callsubr
          hintmask 11101100
          -23 callsubr
          -112 -734 rmoveto
          185 299 112 -299 171 346 121 -484 -710 493 121 vlineto
          endchar
        </CharString>
        <CharString name="Emacron">
          -55 -79 callsubr
          108 83 hstem
          -58 callgsubr
          vstem
          212 121 rmoveto
          185 299 112 -299 171 346 121 -484 -710 493 121 vlineto
          -90 697 -37 callgsubr
        </CharString>
        <CharString name="Eng">
          94 45 callgsubr
          709 -20 21 9 callgsubr
          326 137 hintmask 11101100
          541 28 rmoveto
          -42 vlineto
          -39 -30 -27 -35 -21 -22 -43 callsubr
          47 -15 50 hhcurveto
          99 83 75 112 hvcurveto
          718 -137 -459 vlineto
          hintmask 11011100
          -358 460 rlineto
          -106 -710 138 451 hlineto
          endchar
        </CharString>
        <CharString name="Eogonek">
          -54 -175 -21 196 49 callsubr
          197 81 vstem
          212 121 rmoveto
          185 299 112 -299 171 346 121 -484 -710 416 vlineto
          -54 -34 -27 -38 -37 -43 callgsubr
          -61 callsubr
          26 25 28 52 31 vhcurveto
          121 vlineto
          endchar
        </CharString>
        <CharString name="Eth">
          -69 callsubr
        </CharString>
        <CharString name="Etilde">
          -55 -79 callsubr
          77 -33 callgsubr
          74 138 hintmask 11110110
          212 121 rmoveto
          185 299 112 -299 171 346 121 -484 -710 493 121 vlineto
          -178 666 -88 callsubr
          hintmask 11101010
          -93 callsubr
          hintmask 11110110
          -52 callsubr
        </CharString>
        <CharString name="Euro">
          142 -6 122 126 74 51 74 151 122 hstem
          77 441 rmoveto
          -30 -74 rlineto
          70 -7 hlineto
          -15 1 -15 2 -14 vhcurveto
          -56 hlineto
          -31 -74 rlineto
          104 hlineto
          -135 46 120 -113 158 hhcurveto
          -13 callgsubr
          hvcurveto
          -113 65 rlineto
          -77 -33 -77 -31 -65 hhcurveto
          -84 -66 52 74 -34 hvcurveto
          183 hlineto
          30 74 rlineto
          -234 hlineto
          -2 13 -1 13 14 vvcurveto
          11 239 vlineto
          30 74 rlineto
          -256 hlineto
          82 25 64 69 104 hhcurveto
          63 75 -26 -80 36 hvcurveto
          106 73 rlineto
          92 -46 -100 63 -130 hhcurveto
          -187 -121 -129 -144 -33 hvcurveto
          endchar
        </CharString>
        <CharString name="F">
          -82 21 -21 294 112 183 -7 callsubr
          vstem
          212 hmoveto
          294 282 112 -282 183 339 121 -477 -710 vlineto
          endchar
        </CharString>
        <CharString name="F.sc">
          -146 21 -21 224 99 130 78 callsubr
          vstem
          189 hmoveto
          224 247 99 -247 130 296 106 -417 -559 vlineto
          endchar
        </CharString>
        <CharString name="G">
          69 -5 -35 callgsubr
          58 callsubr
          hintmask 01111100
          567 hmoveto
          -35 callsubr
          hintmask 10111100
          -98 callgsubr
          endchar
        </CharString>
        <CharString name="G.alt">
          65 -5 122 138 120 218 122 hstem
          32 139 vstem
          381 -5 rmoveto
          185 125 144 169 7 hvcurveto
          4 1 61 2 vvcurveto
          -304 -120 155 hlineto
          -71 -18 -72 -67 -92 hhcurveto
          -130 -67 125 113 118 71 120 127 95 53 -74 -39 22 hvcurveto
          109 86 rlineto
          93 -54 -97 56 -120 hhcurveto
          -210 -135 -173 -183 -187 144 -177 205 hvcurveto
          endchar
        </CharString>
        <CharString name="G.sc">
          -36 -4 108 -83 -21 202 88 165 108 hstemhm
          32 122 199 224 -100 100 hintmask 01111010
          477 hmoveto
          100 290 hlineto
          hintmask 10111100
          -224 -88 hlineto
          hintmask 10111010
          124 -27 hlineto
          -47 -45 -52 -24 -54 hhcurveto
          -99 -73 75 100 96 66 80 99 62 56 -30 -52 28 hvcurveto
          92 68 rlineto
          74 -40 -83 48 -111 hhcurveto
          -166 -125 -126 -154 -151 126 -136 157 62 52 19 42 48 hvcurveto
          endchar
        </CharString>
        <CharString name="Gacute">
          69 -5 -35 callgsubr
          200 -20 58 callsubr
          hintmask 01111110
          510 915 -102 callsubr
          150 -770 rmoveto
          -35 callsubr
          hintmask 10111110
          -98 callgsubr
          endchar
        </CharString>
        <CharString name="Gbreve">
          69 -5 -35 callgsubr
          66 60 -60 134 58 callsubr
          hintmask 01111011
          567 hmoveto
          -35 callsubr
          hintmask 10111011
          -98 callgsubr
          hintmask 01111011
          -189 761 rmoveto
          hintmask 10110111
          -91 callsubr
          hintmask 10111011
          -56 callgsubr
        </CharString>
        <CharString name="Gcircumflex">
          69 -5 -35 callgsubr
          200 -20 58 callsubr
          hintmask 01111110
          293 782 -100 callsubr
          344 -814 rmoveto
          -35 callsubr
          hintmask 10111110
          -98 callgsubr
          endchar
        </CharString>
        <CharString name="Gcommaaccent">
          69 0 callgsubr
          42 -35 callgsubr
          hstemhm
          32 139 143 113 140 114 hintmask 10111111
          387 -88 callgsubr
          241 213 rmoveto
          -35 callsubr
          hintmask 11011111
          -98 callgsubr
          endchar
        </CharString>
        <CharString name="Gdotaccent">
          69 -5 -35 callgsubr
          74 126 hstemhm
          32 139 148 121 127 114 hintmask 01111111
          567 hmoveto
          -35 callsubr
          hintmask 10111111
          -98 callgsubr
          hintmask 01111111
          -127 709 -90 callgsubr
          endchar
        </CharString>
        <CharString name="H">
          89 21 79 callgsubr
          287 47 callgsubr
          322 -4 callgsubr
          534 710 -59 callgsubr
          endchar
        </CharString>
        <CharString name="H.sc">
          2 21 -21 232 107 220 -20 hstem
          68 121 280 121 vstem
          469 559 rmoveto
          -220 -280 220 -121 -559 121 232 280 -232 121 559 vlineto
          endchar
        </CharString>
        <CharString name="Hbar">
          97 21 79 callgsubr
          120 66 101 -20 hstem
          78 138 322 -4 callgsubr
          538 710 rmoveto
          -101 -322 101 -138 -101 -50 -66 50 -543 138 303 322 -303 137 543 50 66 -50 101 vlineto
          -459 -287 rmoveto
          120 322 -120 vlineto
          endchar
        </CharString>
        <CharString name="Hcircumflex">
          89 21 79 callgsubr
          287 -20 225 47 callgsubr
          322 -4 callgsubr
          291 782 -100 callsubr
          313 -104 -59 callgsubr
          endchar
        </CharString>
        <CharString name="Hdotbelow">
          89 26 callsubr
          303 120 287 47 callgsubr
          99 121 102 -4 callgsubr
          534 710 -59 callgsubr
          -239 -906 -90 callgsubr
          endchar
        </CharString>
        <CharString name="I">
          -370 21 -21 710 -51 callsubr
          endchar
        </CharString>
        <CharString name="I.sc">
          -399 -5 callgsubr
          68 121 vstem
          189 hmoveto
          559 87 callsubr
        </CharString>
        <CharString name="IJ">
          121 -11 122 -90 -21 710 9 callgsubr
          361 138 hintmask 01111000
          -70 callgsubr
          219 33 rmoveto
          hintmask 10111000
          -86 callgsubr
          endchar
        </CharString>
        <CharString name="Iacute">
          -370 21 -21 710 -20 225 -51 callsubr
          196 915 -38 callsubr
        </CharString>
        <CharString name="Ibreve">
          -370 -76 callgsubr
          91 -17 callgsubr
          74 138 hintmask 11101000
          -70 callgsubr
          68 841 rmoveto
          hintmask 11011000
          -91 callsubr
          hintmask 11101000
          -56 callgsubr
        </CharString>
        <CharString name="Icircumflex">
          -370 21 -21 710 -20 225 -51 callsubr
          -16 782 -52 callgsubr
        </CharString>
        <CharString name="Idblgrave">
          -370 -76 callgsubr
          227 -51 callsubr
          140 772 12 callgsubr
        </CharString>
        <CharString name="Idieresis">
          -370 -76 callgsubr
          100 119 hstemhm
          -9 111 -28 138 -29 111 hintmask 11101000
          -70 callgsubr
          hintmask 11110100
          28 790 -47 callsubr
        </CharString>
        <CharString name="Idotaccent">
          -370 -76 callgsubr
          99 126 -72 callsubr
          129 789 -90 callgsubr
          endchar
        </CharString>
        <CharString name="Idotbelow">
          -370 26 callsubr
          710 -51 callsubr
          127 -31 callgsubr
          endchar
        </CharString>
        <CharString name="Igrave">
          -370 -76 callgsubr
          226 -51 callsubr
          34 771 -85 callgsubr
        </CharString>
        <CharString name="Iinvertedbreve">
          -370 -76 callgsubr
          91 -13 callsubr
          74 138 hintmask 11011000
          -70 callgsubr
          67 855 rmoveto
          hintmask 11101000
          -92 callsubr
          hintmask 11011000
          87 callgsubr
        </CharString>
        <CharString name="Imacron">
          -370 -76 callgsubr
          128 83 -72 callsubr
          220 818 -37 callgsubr
        </CharString>
        <CharString name="Iogonek">
          -370 -175 -21 217 -41 callsubr
          hstemhm
          54 81 -61 138 hintmask 11110000
          169 64 callsubr
          hintmask 11101000
          26 25 28 52 31 vhcurveto
          710 -138 -710 vlineto
          hintmask 11110000
          61 hlineto
          -54 -34 -27 -38 -37 -43 callgsubr
          endchar
        </CharString>
        <CharString name="Itilde">
          -370 62 callsubr
          74 138 hintmask 11101100
          -70 callgsubr
          132 787 -88 callsubr
          hintmask 11010100
          -93 callsubr
          hintmask 11101100
          -52 callsubr
        </CharString>
        <CharString name="J">
          -165 -11 122 599 -20 hstem
          287 138 vstem
          7 33 rmoveto
          -86 callgsubr
          endchar
        </CharString>
        <CharString name="J.sc">
          -218 -8 107 460 -20 hstem
          256 121 vstem
          12 25 rmoveto
          -22 37 44 -11 54 hhcurveto
          205 25 112 171 hvcurveto
          284 -121 -284 vlineto
          -121 -12 -55 -97 -51 -41 17 8 -16 vhcurveto
          endchar
        </CharString>
        <CharString name="Jcircumflex">
          -165 -11 122 599 -20 225 -20 hstem
          287 138 vstem
          273 782 -100 callsubr
          -196 -781 rmoveto
          -86 callgsubr
          endchar
        </CharString>
        <CharString name="K">
          13 21 -21 709 -20 21 9 callgsubr
          hintmask 10110000
          212 hmoveto
          -10 callgsubr
          hintmask 11010000
          337 -138 -709 vlineto
          endchar
        </CharString>
        <CharString name="K.sc">
          -62 -5 callgsubr
          68 121 vstem
          189 hmoveto
          168 vlineto
          83 74 198 -242 rlineto
          127 hlineto
          -252 310 238 249 rlineto
          -127 hlineto
          -267 -261 rlineto
          261 87 callsubr
        </CharString>
        <CharString name="Kcommaaccent">
          13 0 callgsubr
          68 -21 709 -20 21 9 callgsubr
          80 113 hintmask 11011100
          365 -88 callgsubr
          -92 213 rmoveto
          -10 callgsubr
          hintmask 11101100
          337 -138 -709 vlineto
          endchar
        </CharString>
        <CharString name="L">
          -72 22 callsubr
          74 138 vstem
          574 hmoveto
          -34 callgsubr
          endchar
        </CharString>
        <CharString name="L.sc">
          -170 0 106 453 -20 hstem
          68 121 vstem
          475 hmoveto
          106 -286 453 87 callsubr
        </CharString>
        <CharString name="Lacute">
          -72 0 47 callsubr
          225 47 callgsubr
          vstem
          486 915 -102 callsubr
          181 -770 rmoveto
          -34 callgsubr
          endchar
        </CharString>
        <CharString name="Lcaron">
          -72 0 121 609 47 callgsubr
          vstem
          506 730 -102 callsubr
          161 -585 rmoveto
          -34 callgsubr
          endchar
        </CharString>
        <CharString name="Lcommaaccent">
          -72 0 callgsubr
          47 43 callgsubr
          74 138 64 113 vstem
          349 -88 callgsubr
          286 213 rmoveto
          -34 callgsubr
          endchar
        </CharString>
        <CharString name="Ldot">
          -72 0 121 210 151 228 47 callgsubr
          153 110 vstem
          574 hmoveto
          -34 callgsubr
          401 331 14 callsubr
        </CharString>
        <CharString name="Lslash">
          -62 22 callsubr
          83 138 vstem
          583 hmoveto
          121 -362 241 vlineto
          143 90 -33 73 -110 -70 rlineto
          255 -138 -342 vlineto
          -85 -53 33 -73 52 33 rlineto
          -275 vlineto
          endchar
        </CharString>
        <CharString name="M">
          209 8 callsubr
          74 138 441 138 vstem
          791 -28 callsubr
        </CharString>
        <CharString name="M.sc">
          107 -5 callgsubr
          68 121 385 120 vstem
          694 hmoveto
          559 -129 vlineto
          -183 -302 -183 302 rlineto
          -131 -559 121 349 hlineto
          159 -256 rlineto
          66 hlineto
          160 256 rlineto
          -349 vlineto
          endchar
        </CharString>
        <CharString name="N">
          107 21 -21 709 -20 21 9 callgsubr
          339 138 hintmask 11011000
          577 hmoveto
          -42 callgsubr
          hintmask 10111000
          -66 callgsubr
          endchar
        </CharString>
        <CharString name="N.sc">
          17 -5 callgsubr
          68 121 295 121 vstem
          507 hmoveto
          98 559 -121 -344 hlineto
          -322 344 rlineto
          -94 -559 121 335 hlineto
          endchar
        </CharString>
        <CharString name="NULL">
          -656 endchar
        </CharString>
        <CharString name="Nacute">
          25 callgsubr
          509 915 -102 callsubr
          161 -770 30 callsubr
          -66 callgsubr
          endchar
        </CharString>
        <CharString name="Ncaron">
          25 callgsubr
          227 883 -93 callgsubr
          280 -915 30 callsubr
          -66 callgsubr
          endchar
        </CharString>
        <CharString name="Ncommaaccent">
          107 0 callgsubr
          68 -21 709 -20 21 9 callgsubr
          109 113 117 138 hintmask 11101110
          394 -88 callgsubr
          244 213 30 callsubr
          hintmask 11011110
          -66 callgsubr
          endchar
        </CharString>
        <CharString name="Ndotaccent">
          107 -76 callgsubr
          99 126 hstem
          -58 callgsubr
          109 121 109 138 cntrmask 00011100
          442 789 -90 callgsubr
          256 -789 30 callsubr
          -66 callgsubr
          endchar
        </CharString>
        <CharString name="Ntilde">
          107 62 callsubr
          74 138 339 138 hintmask 11101110
          577 hmoveto
          -42 callgsubr
          -66 callgsubr
          232 332 -88 callsubr
          hintmask 11010110
          -93 callsubr
          hintmask 11101110
          -52 callsubr
        </CharString>
        <CharString name="O">
          -55 callgsubr
          hstem
          -54 callgsubr
          vstem
          -92 callgsubr
          endchar
        </CharString>
        <CharString name="O.sc">
          -3 -4 107 351 108 hstem
          32 122 344 123 vstem
          326 -4 rmoveto
          171 124 134 147 142 -117 143 -176 -171 -125 -134 -148 -144 118 -140 176 hvcurveto
          -172 283 rmoveto
          86 62 89 110 106 66 -84 -90 -87 -60 -90 -111 -108 -65 86 90 vhcurveto
          endchar
        </CharString>
        <CharString name="OE">
          429 -5 126 -100 -21 301 121 167 121 5 -20 hstemhm
          31 140 395 144 hintmask 10110110
          710 121 rmoveto
          180 279 121 -279 167 333 121 -471 -104 vlineto
          hintmask 10101110
          62 -44 -71 47 -87 hhcurveto
          -195 -144 -171 -189 -182 136 -178 201 85 74 47 63 45 hvcurveto
          hintmask 01110110
          -105 480 vlineto
          hintmask 10110110
          121 vlineto
          -683 -4 rmoveto
          -124 -74 115 123 117 70 121 128 122 75 -115 -122 -118 -69 -121 -128 hvcurveto
          endchar
        </CharString>
        <CharString name="Oacute">
          -55 callgsubr
          200 5 callgsubr
          511 915 -102 callsubr
          -41 -775 -105 callgsubr
        </CharString>
        <CharString name="Obreve">
          -55 callgsubr
          66 60 -60 134 57 callsubr
          hintmask 11101100
          -92 callgsubr
          210 486 rmoveto
          hintmask 11011100
          -91 callsubr
          hintmask 11101100
          -56 callgsubr
        </CharString>
        <CharString name="Ocircumflex">
          -55 callgsubr
          200 5 callgsubr
          295 782 -100 callsubr
          152 -819 -105 callgsubr
        </CharString>
        <CharString name="Odblgrave">
          -55 callgsubr
          202 5 callgsubr
          438 772 -95 callsubr
          185 -922 -105 callgsubr
        </CharString>
        <CharString name="Odieresis">
          -55 callgsubr
          75 119 89 callgsubr
          56 -26 callgsubr
          55 139 vstem
          338 790 -99 callsubr
          -42 -795 -105 callgsubr
        </CharString>
        <CharString name="Odotbelow">
          100 -29 callsubr
          65 -30 callsubr
          89 callgsubr
          145 121 148 139 vstem
          437 -31 callgsubr
          61 191 -105 callgsubr
        </CharString>
        <CharString name="Ograve">
          -55 callgsubr
          201 5 callgsubr
          -92 callgsubr
          176 416 -85 callgsubr
        </CharString>
        <CharString name="Ohungarumlaut">
          -55 callgsubr
          201 5 callgsubr
          404 916 -68 callsubr
          -101 -776 -105 callgsubr
        </CharString>
        <CharString name="Oinvertedbreve">
          -55 callgsubr
          66 134 -60 60 57 callsubr
          hintmask 11011100
          379 855 rmoveto
          hintmask 11101100
          -92 callsubr
          hintmask 11011100
          -23 callsubr
          -2 -860 -105 callgsubr
        </CharString>
        <CharString name="Omacron">
          -55 callgsubr
          103 83 hstem
          -54 callgsubr
          vstem
          531 818 rmoveto
          83 -300 -83 vlineto
          146 -823 -105 callgsubr
        </CharString>
        <CharString name="Omega">
          -72 callgsubr
        </CharString>
        <CharString name="Oogonek">
          100 -176 -21 789 123 89 callgsubr
          81 81 252 139 vstem
          367 -197 rmoveto
          -61 callsubr
          25 23 28 49 30 vhcurveto
          186 15 133 162 179 vvcurveto
          179 -138 183 -206 -201 -148 -171 -189 -169 119 -165 182 -23 vhcurveto
          -54 -34 -26 -38 -36 -43 callgsubr
          -196 552 rmoveto
          117 73 120 134 128 79 -114 -123 -117 -73 -121 -134 -131 -76 115 123 vhcurveto
          endchar
        </CharString>
        <CharString name="Oslash">
          63 callgsubr
          57 callsubr
          hintmask 10011100
          551 710 rmoveto
          -22 -31 rlineto
          hintmask 01101100
          -3 callgsubr
          hintmask 10011100
          -47 callgsubr
          hintmask 10101100
          11 callgsubr
          endchar
        </CharString>
        <CharString name="Oslashacute">
          63 callgsubr
          225 -20 57 callsubr
          hintmask 10011110
          551 710 rmoveto
          -22 -31 rlineto
          hintmask 01101110
          -3 callgsubr
          hintmask 10011110
          -47 callgsubr
          hintmask 10101110
          11 callgsubr
          334 560 -38 callsubr
        </CharString>
        <CharString name="Otilde">
          -55 callgsubr
          72 78 -33 80 3 -20 57 callsubr
          hintmask 11101110
          -92 callgsubr
          273 432 -88 callsubr
          hintmask 11010110
          -93 callsubr
          hintmask 11101110
          -52 callsubr
        </CharString>
        <CharString name="P">
          -33 21 54 callgsubr
          249 140 vstem
          212 -39 callgsubr
        </CharString>
        <CharString name="P.sc">
          -104 21 -21 183 106 164 78 callsubr
          217 123 vstem
          189 hmoveto
          183 147 vlineto
          115 78 92 96 92 -83 96 -115 hvcurveto
          -263 -559 hlineto
          121 453 rmoveto
          134 hlineto
          43 40 -28 -54 -53 -33 -29 -45 hvcurveto
          -139 hlineto
          endchar
        </CharString>
        <CharString name="Q">
          99 -5 122 -96 -21 593 122 57 callsubr
          hintmask 01111000
          598 hmoveto
          130 hlineto
          -97 109 rlineto
          58 65 35 87 92 vvcurveto
          179 -138 183 -206 -201 -148 -171 -189 vhcurveto
          hintmask 10111000
          -182 139 -177 207 -1 vhcurveto
          67 61 19 32 52 hvcurveto
          hintmask 01111000
          hintmask 10111000
          -179 71 rmoveto
          -131 -76 115 123 117 73 121 134 128 79 -115 -123 -52 -15 -53 -27 -42 hvcurveto
          -49 55 rlineto
          -130 hlineto
          108 -122 rlineto
          -15 -27 -31 -9 -36 hhcurveto
          endchar
        </CharString>
        <CharString name="Q.sc">
          -3 -4 108 -108 219 -194 -21 455 108 hstemhm
          32 122 344 123 hintmask 00111100
          519 hmoveto
          114 hlineto
          -87 91 rlineto
          47 51 28 66 69 vvcurveto
          142 -117 144 -176 -171 -125 -135 -148 vhcurveto
          hintmask 10011100
          -144 118 -140 176 59 53 16 26 44 vhcurveto
          hintmask 00111100
          hintmask 10011100
          -155 66 rmoveto
          -108 -65 85 90 86 62 90 110 106 66 -85 -90 -37 -11 -37 -21 -31 hvcurveto
          hintmask 01011100
          -37 40 rlineto
          -116 hlineto
          90 -94 rlineto
          hintmask 10011100
          -11 -22 -25 -6 -29 hhcurveto
          endchar
        </CharString>
        <CharString name="R">
          9 21 54 callgsubr
          263 139 vstem
          212 hmoveto
          -98 callsubr
          endchar
        </CharString>
        <CharString name="R.sc">
          -62 21 -21 183 106 164 78 callsubr
          229 122 vstem
          189 hmoveto
          183 118 vlineto
          130 -183 rlineto
          138 hlineto
          -146 209 rlineto
          68 28 43 64 70 vvcurveto
          92 -82 96 -115 vhcurveto
          -275 -559 hlineto
          121 453 rmoveto
          146 hlineto
          43 40 -34 -48 -47 -34 -35 -44 hvcurveto
          -151 hlineto
          endchar
        </CharString>
        <CharString name="Racute">
          -24 callgsubr
          206 47 callgsubr
          263 139 vstem
          447 916 -102 callsubr
          -142 -771 rmoveto
          -98 callsubr
          endchar
        </CharString>
        <CharString name="Rcaron">
          -24 callgsubr
          0 73 133 9 callgsubr
          263 139 hintmask 11011110
          164 884 -93 callgsubr
          -22 -916 rmoveto
          238 136 vlineto
          145 -238 rlineto
          155 hlineto
          -162 267 rlineto
          78 33 50 83 91 vvcurveto
          116 -95 120 -131 vhcurveto
          -314 -710 hlineto
          hintmask 11101110
          138 589 rmoveto
          167 hlineto
          49 47 -49 -66 -64 -39 -51 -51 hvcurveto
          -173 hlineto
          endchar
        </CharString>
        <CharString name="Rcommaaccent">
          9 0 callgsubr
          68 54 callgsubr
          70 113 80 139 vstem
          355 -88 callgsubr
          -82 213 rmoveto
          -98 callsubr
          endchar
        </CharString>
        <CharString name="Rdblgrave">
          -24 callgsubr
          207 47 callgsubr
          263 139 vstem
          380 772 -95 callsubr
          78 -917 rmoveto
          -98 callsubr
          endchar
        </CharString>
        <CharString name="Rdotbelow">
          9 -196 126 91 54 callgsubr
          63 121 79 139 vstem
          212 hmoveto
          -98 callsubr
          184 -555 -90 callgsubr
          endchar
        </CharString>
        <CharString name="Rinvertedbreve">
          -24 callgsubr
          71 -13 callsubr
          74 138 263 139 hintmask 11101110
          322 855 rmoveto
          hintmask 11110110
          -92 callsubr
          hintmask 11101110
          -23 callsubr
          -110 -855 rmoveto
          -98 callsubr
          endchar
        </CharString>
        <CharString name="S">
          -43 -8 83 callgsubr
          243 147 vstem
          558 636 -104 callsubr
          -50 callgsubr
          endchar
        </CharString>
        <CharString name="S.sc">
          -124 -7 109 354 107 hstem
          49 124 199 130 vstem
          480 501 rmoveto
          32 -52 -75 30 -84 hhcurveto
          -121 -99 -61 -115 -87 54 -40 115 -29 hvcurveto
          94 -24 60 -14 -42 vvcurveto
          -31 -33 -18 -59 -92 -84 40 27 -26 vhcurveto
          -54 -105 rlineto
          -44 69 95 -27 90 hhcurveto
          118 106 46 124 103 -75 35 -118 29 hvcurveto
          -90 22 -46 10 41 vvcurveto
          34 31 19 63 70 69 -35 -19 22 vhcurveto
          endchar
        </CharString>
        <CharString name="Sacute">
          7 callsubr
          208 -20 hstem
          75 callsubr
          vstem
          449 923 -102 callsubr
          202 -142 -104 callsubr
          -50 callgsubr
          endchar
        </CharString>
        <CharString name="Scaron">
          7 callsubr
          0 75 81 callgsubr
          75 callsubr
          hintmask 10111100
          166 891 -93 callgsubr
          322 -287 -104 callsubr
          hintmask 11011100
          -50 callgsubr
          endchar
        </CharString>
        <CharString name="Schwa">
          90 -5 121 177 108 191 123 hstem
          369 -5 rmoveto
          209 136 173 191 182 -138 174 -205 -140 -118 -75 -110 -53 hvcurveto
          139 -47 rlineto
          65 20 72 44 76 hhcurveto
          99 86 -74 -117 12 hvcurveto
          -539 hlineto
          -3 -14 -2 -22 -21 vvcurveto
          -174 140 -175 209 vhcurveto
          2 121 rmoveto
          -106 -84 74 103 -10 hvcurveto
          391 hlineto
          -104 -9 -79 -73 -103 hhcurveto
          endchar
        </CharString>
        <CharString name="Scircumflex">
          7 callsubr
          208 -20 hstem
          75 callsubr
          vstem
          236 790 -100 callsubr
          392 -186 -104 callsubr
          -50 callgsubr
          endchar
        </CharString>
        <CharString name="Sdotbelow">
          -43 -29 callsubr
          62 83 callgsubr
          50 121 72 147 vstem
          558 636 -104 callsubr
          -50 callgsubr
          -133 -720 -90 callgsubr
          endchar
        </CharString>
        <CharString name="T">
          -37 21 73 callgsubr
          605 710 rmoveto
          -591 -121 -15 callgsubr
          hlineto
          endchar
        </CharString>
        <CharString name="T.sc">
          -106 21 -21 453 106 hstem
          215 121 vstem
          533 559 rmoveto
          -516 -106 198 -453 121 453 197 hlineto
          endchar
        </CharString>
        <CharString name="Tbar">
          -12 21 -21 313 66 210 121 hstem
          254 -4 callgsubr
          618 710 rmoveto
          -591 -121 227 -210 -191 -66 191 -313 137 313 190 66 -190 210 227 hlineto
          endchar
        </CharString>
        <CharString name="Tcaron">
          -37 21 45 callsubr
          0 72 81 callgsubr
          241 137 hintmask 10111000
          160 883 -93 callgsubr
          375 -205 rmoveto
          -591 hlineto
          hintmask 11011000
          -121 -15 callgsubr
          vlineto
          endchar
        </CharString>
        <CharString name="Tdotbelow">
          -37 -196 126 91 73 callgsubr
          368 -31 callgsubr
          358 906 rmoveto
          -591 -121 -15 callgsubr
          hlineto
          endchar
        </CharString>
        <CharString name="Thorn">
          -52 21 -21 110 68 callgsubr
          128 47 callgsubr
          235 -4 callgsubr
          358 582 rmoveto
          -146 128 -138 -710 138 110 152 hlineto
          131 89 114 122 117 -95 119 -131 hvcurveto
          -1 -351 rmoveto
          -145 230 139 hlineto
          50 46 -49 -66 -63 -38 -52 -52 hvcurveto
          endchar
        </CharString>
        <CharString name="U">
          94 -5 122 593 -53 callsubr
          endchar
        </CharString>
        <CharString name="U.sc">
          -2 -4 107 456 -20 hstem
          60 121 292 121 vstem
          326 103 rmoveto
          -108 -37 82 88 hvcurveto
          286 -121 -286 vlineto
          -146 73 -131 194 188 79 123 154 vhcurveto
          286 -121 -286 vlineto
          -86 -34 -84 -113 vhcurveto
          endchar
        </CharString>
        <CharString name="Uacute">
          -44 callgsubr
          225 32 callgsubr
          503 915 -102 callsubr
          -36 -653 rmoveto
          -36 callgsubr
        </CharString>
        <CharString name="Ubreve">
          -44 callgsubr
          91 -17 callgsubr
          64 138 346 137 hintmask 11101100
          -95 callgsubr
          1 724 rmoveto
          hintmask 11011100
          -91 callsubr
          hintmask 11101100
          -56 callgsubr
        </CharString>
        <CharString name="Ucircumflex">
          -44 callgsubr
          225 32 callgsubr
          290 782 -100 callsubr
          154 -697 rmoveto
          -36 callgsubr
        </CharString>
        <CharString name="Udblgrave">
          -44 callgsubr
          227 32 callgsubr
          438 772 -95 callsubr
          182 -800 rmoveto
          -36 callgsubr
        </CharString>
        <CharString name="Udieresis">
          -44 callgsubr
          100 119 hstem
          64 138 21 -26 callgsubr
          22 -4 callgsubr
          334 790 -99 callsubr
          -41 -673 rmoveto
          -36 callgsubr
        </CharString>
        <CharString name="Udotbelow">
          94 -29 callsubr
          65 -17 callsubr
          hstem
          64 138 111 121 114 -85 callsubr
          60 -313 -90 callgsubr
          endchar
        </CharString>
        <CharString name="Ugrave">
          -44 callgsubr
          226 -53 callsubr
          -34 654 -85 callgsubr
        </CharString>
        <CharString name="Uhungarumlaut">
          -44 callgsubr
          226 -53 callsubr
          23 799 -68 callsubr
          endchar
        </CharString>
        <CharString name="Uinvertedbreve">
          -44 callgsubr
          91 -13 callsubr
          64 138 346 137 hintmask 11011100
          374 855 rmoveto
          hintmask 11101100
          -92 callsubr
          hintmask 11011100
          -23 callsubr
          -738 -39 callsubr
        </CharString>
        <CharString name="Umacron">
          -44 callgsubr
          128 83 -78 callgsubr
          152 701 -37 callgsubr
        </CharString>
        <CharString name="Uogonek">
          94 -176 -21 193 121 593 -20 hstem
          64 138 51 81 214 -4 callgsubr
          374 117 rmoveto
          -129 -43 112 119 hvcurveto
          362 -138 -362 vlineto
          -172 73 -158 195 -20 vhcurveto
          -53 -34 -26 -38 -36 -43 callgsubr
          -61 callsubr
          25 23 27 49 30 vhcurveto
          196 14 83 153 185 vvcurveto
          362 -137 -362 vlineto
          -116 -42 -115 -132 vhcurveto
          endchar
        </CharString>
        <CharString name="Uring">
          -44 callgsubr
          71 41 72 41 hstem
          64 138 75 57 81 56 77 -4 callgsubr
          277 838 -84 callsubr
          -757 -39 callsubr
        </CharString>
        <CharString name="Utilde">
          -44 callgsubr
          97 -33 callgsubr
          64 138 346 137 hintmask 11101110
          -95 callgsubr
          64 670 -88 callsubr
          hintmask 11010110
          -93 callsubr
          hintmask 11101110
          -52 callsubr
        </CharString>
        <CharString name="V">
          20 8 callsubr
          2 710 rmoveto
          279 -710 rlineto
          116 hlineto
          277 710 rlineto
          -145 hlineto
          -190 -537 -192 537 rlineto
          endchar
        </CharString>
        <CharString name="V.sc">
          -61 -5 callgsubr
          4 559 rmoveto
          243 -559 rlineto
          102 hlineto
          242 559 rlineto
          -127 hlineto
          -166 -389 -167 389 rlineto
          endchar
        </CharString>
        <CharString name="W">
          397 8 callsubr
          438 385 -96 callsubr
          endchar
        </CharString>
        <CharString name="W.alt">
          453 8 callsubr
          943 710 rmoveto
          -150 -503 -166 503 rlineto
          -149 hlineto
          -161 -504 -152 504 rlineto
          -155 hlineto
          222 -710 rlineto
          143 hlineto
          178 485 182 -485 rlineto
          142 hlineto
          223 710 rlineto
          endchar
        </CharString>
        <CharString name="W.sc">
          270 -5 callgsubr
          385 300 rmoveto
          -70 -155 -182 414 rlineto
          -131 hlineto
          252 -559 rlineto
          102 hlineto
          107 225 107 -225 rlineto
          102 hlineto
          252 559 rlineto
          -132 hlineto
          -180 -414 -73 155 106 257 rlineto
          -112 hlineto
          -71 -181 -69 181 rlineto
          -112 hlineto
          endchar
        </CharString>
        <CharString name="Wacute">
          397 -8 callgsubr
          654 915 -102 callsubr
          -123 -385 -96 callsubr
          endchar
        </CharString>
        <CharString name="Wcircumflex">
          397 -8 callgsubr
          441 782 -100 callsubr
          67 -429 -96 callsubr
          endchar
        </CharString>
        <CharString name="Wdieresis">
          397 -76 callgsubr
          100 119 hstem
          374 68 callsubr
          485 790 -99 callsubr
          -128 -405 -96 callsubr
          endchar
        </CharString>
        <CharString name="Wgrave">
          397 -76 callgsubr
          226 -20 hstem
          438 385 -96 callsubr
          172 63 -85 callgsubr
        </CharString>
        <CharString name="X">
          -51 callgsubr
        </CharString>
        <CharString name="X.sc">
          -80 -5 callgsubr
          2 559 rmoveto
          222 -283 -215 -276 rlineto
          133 hlineto
          146 190 147 -190 rlineto
          131 hlineto
          -214 276 221 283 rlineto
          -131 hlineto
          -154 -198 -154 198 rlineto
          endchar
        </CharString>
        <CharString name="Y">
          4 8 callsubr
          261 -4 callgsubr
          -86 callsubr
          endchar
        </CharString>
        <CharString name="Y.sc">
          -79 -5 callgsubr
          228 120 vstem
          4 559 rmoveto
          224 -365 rlineto
          -194 120 193 vlineto
          226 366 rlineto
          -132 hlineto
          -154 -261 -153 261 rlineto
          endchar
        </CharString>
        <CharString name="Yacute">
          4 -8 callgsubr
          261 -4 callgsubr
          -86 callsubr
          303 205 -38 callsubr
        </CharString>
        <CharString name="Ycircumflex">
          4 -8 callgsubr
          261 -4 callgsubr
          -86 callsubr
          91 72 -52 callgsubr
        </CharString>
        <CharString name="Ydieresis">
          4 -76 callgsubr
          100 119 hstemhm
          178 111 -28 137 -28 111 hintmask 11101000
          -86 callsubr
          hintmask 11110100
          135 80 -47 callsubr
        </CharString>
        <CharString name="Ygrave">
          4 -76 callgsubr
          226 -20 hstem
          261 -4 callgsubr
          -86 callsubr
          141 61 -85 callgsubr
        </CharString>
        <CharString name="Ytilde">
          4 62 callsubr
          261 137 hintmask 11101100
          -86 callsubr
          238 77 -88 callsubr
          hintmask 11010100
          -93 callsubr
          hintmask 11101100
          -52 callsubr
        </CharString>
        <CharString name="Z">
          57 callgsubr
          hstem
          30 -64 callgsubr
          endchar
        </CharString>
        <CharString name="Z.sc">
          -94 0 106 347 106 hstem
          33 hmoveto
          492 106 -340 hlineto
          338 362 rlineto
          91 -480 -106 339 vlineto
          -349 -362 rlineto
          endchar
        </CharString>
        <CharString name="Zacute">
          57 callgsubr
          205 -20 hstem
          454 915 -102 callsubr
          -331 -770 rmoveto
          -60 callgsubr
          endchar
        </CharString>
        <CharString name="Zcaron">
          57 callgsubr
          0 72 81 callgsubr
          hintmask 10110000
          172 883 -93 callgsubr
          -212 -915 rmoveto
          -67 callsubr
          vlineto
          hintmask 11010000
          -121 390 vlineto
          -401 -485 rlineto
          endchar
        </CharString>
        <CharString name="Zdotaccent">
          57 callgsubr
          79 126 hstem
          266 121 vstem
          30 -64 callgsubr
          357 685 -90 callgsubr
          endchar
        </CharString>
        <CharString name="Zdotbelow">
          -29 -29 callsubr
          70 27 callsubr
          hstem
          259 121 vstem
          30 -64 callgsubr
          350 -300 -90 callgsubr
          endchar
        </CharString>
        <CharString name="a">
          -71 callsubr
          -48 callsubr
          hintmask 01111100
          -80 callgsubr
          hintmask 10111100
          -106 callgsubr
          hintmask 01111100
          -23 callgsubr
          hintmask 10111100
          38 98 -102 callgsubr
          endchar
        </CharString>
        <CharString name="a.alt">
          -21 -10 114 -83 -21 419 114 hstemhm
          29 139 273 134 hintmask 10111000
          277 -10 rmoveto
          76 54 35 60 34 hvcurveto
          hintmask 01111000
          -85 134 517 -134 -86 vlineto
          62 -34 -65 40 -78 hhcurveto
          -134 -101 -119 -152 hvcurveto
          hintmask 10111000
          -152 103 -120 145 vhcurveto
          164 202 rmoveto
          -53 -27 -44 -35 -59 hhcurveto
          -83 -60 69 86 82 57 78 81 58 53 -42 -61 24 hvcurveto
          endchar
        </CharString>
        <CharString name="a.alt2">
          -91 -10 98 -67 -21 250 75 115 93 -48 callsubr
          hintmask 01111100
          510 hmoveto
          317 vlineto
          136 -85 80 -153 -81 -73 -25 -42 -64 vhcurveto
          41 -85 rlineto
          39 56 52 20 56 hhcurveto
          77 40 -40 -68 hvcurveto
          -30 vlineto
          12 -27 -46 11 -55 hhcurveto
          -119 -104 -61 -108 hvcurveto
          hintmask 10111100
          -95 77 -71 102 73 64 27 56 40 vhcurveto
          hintmask 01111100
          -73 vlineto
          -27 132 rmoveto
          hintmask 10111100
          -30 -25 -47 -14 -40 hhcurveto
          -49 -41 32 47 55 59 28 59 33 40 -7 -13 33 hvcurveto
          -60 vlineto
          -13 -8 -14 -14 -11 vhcurveto
          endchar
        </CharString>
        <CharString name="aacute">
          -71 callsubr
          197 -20 -48 callsubr
          hintmask 01111110
          -80 callgsubr
          hintmask 10111110
          -106 callgsubr
          hintmask 01111110
          -23 callgsubr
          hintmask 10111110
          38 98 -102 callgsubr
          158 642 -38 callsubr
        </CharString>
        <CharString name="abreve">
          -71 callsubr
          63 60 -60 134 -48 callsubr
          hintmask 01111011
          -80 callgsubr
          hintmask 10111011
          -106 callgsubr
          hintmask 01111011
          -23 callgsubr
          hintmask 10111011
          38 98 -102 callgsubr
          30 568 rmoveto
          hintmask 10110111
          -91 callsubr
          hintmask 10111011
          -56 callgsubr
        </CharString>
        <CharString name="acircumflex">
          -71 callsubr
          197 -20 -48 callsubr
          hintmask 01111110
          -80 callgsubr
          hintmask 10111110
          -106 callgsubr
          hintmask 01111110
          -23 callgsubr
          hintmask 10111110
          38 98 -102 callgsubr
          -54 509 -52 callgsubr
        </CharString>
        <CharString name="acute">
          2 callsubr
          226 730 -38 callsubr
        </CharString>
        <CharString name="adblgrave">
          -71 callsubr
          197 -20 -48 callsubr
          hintmask 01111110
          -80 callgsubr
          hintmask 10111110
          -106 callgsubr
          hintmask 01111110
          -23 callgsubr
          hintmask 10111110
          38 98 -102 callgsubr
          100 497 12 callgsubr
        </CharString>
        <CharString name="adieresis">
          -71 callsubr
          71 119 0 callsubr
          -31 -26 callgsubr
          -48 134 hintmask 0111110100000000
          -80 callgsubr
          hintmask 1011110010000000
          -106 callgsubr
          hintmask 0111110100000000
          -23 callgsubr
          hintmask 1011110010000000
          38 98 -102 callgsubr
          hintmask 1011101100000000
          -10 516 -47 callsubr
        </CharString>
        <CharString name="ae">
          62 callgsubr
          hstemhm
          25 126 hintmask 11011000
          10 callgsubr
          73 93 32 76 47 hvcurveto
          -65 47 79 -43 99 hhcurveto
          116 89 57 80 39 71 callsubr
          -74 -64 49 82 -6 hvcurveto
          410 hlineto
          1 11 2 18 14 vvcurveto
          146 -1 -103 125 -171 hhcurveto
          -78 -64 -29 -45 -44 hvcurveto
          47 -39 -62 27 -82 hhcurveto
          -78 -72 -22 -45 -69 hvcurveto
          41 -85 rlineto
          39 57 52 20 56 hhcurveto
          71 38 -32 -59 6 hvcurveto
          -4 -11 -3 -21 -1 -12 rrcurveto
          hintmask 10111000
          -45 callgsubr
          hintmask 11011000
          20 callgsubr
        </CharString>
        <CharString name="aeacute">
          62 callgsubr
          197 -20 hstemhm
          25 126 hintmask 11011100
          582 730 -102 callsubr
          -285 -595 rmoveto
          73 93 32 76 47 hvcurveto
          -65 47 79 -43 99 hhcurveto
          116 89 57 80 39 71 callsubr
          -74 -64 49 82 -6 hvcurveto
          410 hlineto
          1 11 2 18 14 vvcurveto
          146 -1 -103 125 -171 hhcurveto
          -78 -64 -29 -45 -44 hvcurveto
          47 -39 -62 27 -82 hhcurveto
          -78 -72 -22 -45 -69 hvcurveto
          41 -85 rlineto
          39 57 52 20 56 hhcurveto
          71 38 -32 -59 6 hvcurveto
          -4 -11 -3 -21 -1 -12 rrcurveto
          hintmask 10111100
          -45 callgsubr
          hintmask 11011100
          20 callgsubr
        </CharString>
        <CharString name="afii61352">
          499 21 -21 339 84 205 85 -3 -20 hstemhm
          83 137 340 137 74 99 173 100 hintmask 11011111
          586 hmoveto
          111 709 -137 -465 hlineto
          -370 466 rlineto
          -107 -710 137 455 hlineto
          737 -116 rmoveto
          117 69 88 99 hvcurveto
          hintmask 11101111
          35 callgsubr
          vhcurveto
          12 callsubr
        </CharString>
        <CharString name="agrave">
          -71 callsubr
          197 -20 -48 callsubr
          hintmask 01111110
          -80 callgsubr
          hintmask 10111110
          -106 callgsubr
          hintmask 01111110
          -23 callgsubr
          hintmask 10111110
          38 98 -102 callgsubr
          -4 497 -85 callgsubr
        </CharString>
        <CharString name="ainvertedbreve">
          -71 callsubr
          63 134 -60 60 -48 callsubr
          hintmask 01111011
          -80 callgsubr
          hintmask 10111011
          -106 callgsubr
          hintmask 01111011
          -23 callgsubr
          hintmask 10110111
          38 98 -102 callgsubr
          40 582 rmoveto
          hintmask 10111011
          -92 callsubr
          hintmask 10110111
          87 callgsubr
        </CharString>
        <CharString name="amacron">
          -71 callsubr
          100 83 -48 callsubr
          hintmask 01111110
          -80 callgsubr
          hintmask 10111110
          -106 callgsubr
          hintmask 01111110
          -23 callgsubr
          hintmask 10111110
          38 98 -102 callgsubr
          181 545 -37 callgsubr
        </CharString>
        <CharString name="ampersand">
          56 -10 105 -74 -21 620 99 hstemhm
          40 129 -82 122 139 123 47 109 hintmask 01101110
          712 hmoveto
          -147 154 38 63 23 78 1 94 rlinecurve
          -109 hlineto
          -58 -12 -51 -20 -43 vhcurveto
          -136 142 rlineto
          70 50 51 56 77 vvcurveto
          104 -91 53 -98 -111 -84 -68 -102 -51 21 -40 57 -64 vhcurveto
          hintmask 10110110
          -66 -46 -59 -59 -88 vvcurveto
          -113 93 -98 147 72 70 24 45 58 vhcurveto
          hintmask 01110110
          56 -59 rlineto
          hintmask 10110110
          -243 95 rmoveto
          -72 -52 48 57 43 29 33 46 33 hvcurveto
          164 -173 rlineto
          -27 -35 -40 -14 -40 hhcurveto
          hintmask 10101110
          -84 458 rmoveto
          37 30 30 43 38 28 -24 -36 -36 -28 -28 -50 -34 vhcurveto
          -47 50 -14 17 24 vvcurveto
          endchar
        </CharString>
        <CharString name="aogonek">
          -81 -175 -21 186 98 162 75 115 93 -29 callgsubr
          89 -89 134 hintmask 11111100
          499 64 callsubr
          26 25 28 52 31 vhcurveto
          114 vlineto
          hintmask 11111010
          -23 1 -9 -19 callgsubr
          163 vlineto
          139 -88 77 -150 -78 -72 -22 -45 -68 vhcurveto
          41 -85 rlineto
          39 56 52 20 56 hhcurveto
          77 40 -39 -69 hvcurveto
          -30 vlineto
          15 -34 -47 8 -47 85 callsubr
          76 69 33 61 47 hvcurveto
          3 -29 5 -31 20 -22 34 -7 rlinecurve
          -50 -33 -24 -36 -35 -43 callgsubr
          -257 284 -102 callgsubr
          endchar
        </CharString>
        <CharString name="apostrophe">
          -124 2 callsubr
          365 55 callsubr
          endchar
        </CharString>
        <CharString name="approxequal">
          -207 134 83 -39 39 -39 86 25 83 -38 38 -38 85 hstemhm
          hintmask 10001000
          336 397 rmoveto
          -12 -8 -15 -13 -27 hhcurveto
          hintmask 10000100
          -48 -23 47 -61 hhcurveto
          -52 -31 -32 -34 -18 hvcurveto
          61 -44 rlineto
          13 7 12 12 26 hhcurveto
          hintmask 01010000
          44 26 -45 61 hhcurveto
          53 34 34 34 19 hvcurveto
          -60 -115 rmoveto
          -13 -8 -15 -12 -27 hhcurveto
          hintmask 00110000
          -48 -23 47 -61 hhcurveto
          -52 -31 -33 -33 -18 hvcurveto
          61 -44 rlineto
          12 7 12 12 26 hhcurveto
          hintmask 10010000
          44 26 -44 61 hhcurveto
          53 34 33 32 19 hvcurveto
          endchar
        </CharString>
        <CharString name="aring">
          -71 callsubr
          43 41 72 41 0 callsubr
          23 57 81 56 7 134 hintmask 0111111111000000
          -80 callgsubr
          hintmask 1011111111000000
          -106 callgsubr
          hintmask 0111111111000000
          -23 callgsubr
          hintmask 1011111111000000
          38 98 -102 callgsubr
          -67 565 -84 callsubr
          endchar
        </CharString>
        <CharString name="aringacute">
          -71 callsubr
          43 41 72 41 -41 211 0 callsubr
          23 57 81 56 7 134 hintmask 0111110111100000
          -80 callgsubr
          hintmask 1011110111100000
          -106 callgsubr
          hintmask 0111110111100000
          -23 callgsubr
          hintmask 1011101111100000
          38 98 -102 callgsubr
          158 812 -102 callsubr
          -132 -102 rmoveto
          -49 39 -28 58 58 39 28 49 vhcurveto
          hintmask 1011110111100000
          49 -39 28 -58 -58 -39 -28 -49 vhcurveto
          97 36 rmoveto
          23 18 -14 -22 -21 -20 -15 -21 -23 -17 16 20 22 18 14 22 hvcurveto
          endchar
        </CharString>
        <CharString name="asciicircum">
          -71 324 -21 407 -20 hstem
          147 303 rmoveto
          146 294 143 -294 rlineto
          110 hlineto
          -197 407 rlineto
          -112 hlineto
          -198 -407 rlineto
          endchar
        </CharString>
        <CharString name="asciitilde">
          -89 228 78 -26 26 -26 80 hstemhm
          hintmask 10000000
          56 228 rmoveto
          74 hlineto
          hintmask 01000000
          2 9 50 55 vhcurveto
          hintmask 10000000
          57 47 -52 72 hhcurveto
          110 34 116 14 hvcurveto
          -74 hlineto
          -5 -13 -47 -56 vhcurveto
          hintmask 00100000
          -60 -44 54 -72 hhcurveto
          hintmask 10000000
          -105 -34 -109 -23 hvcurveto
          endchar
        </CharString>
        <CharString name="asterisk">
          -311 507 -21 231 -20 hstem
          139 66 vstem
          127 486 rmoveto
          46 75 45 -75 52 34 -47 71 70 22 -18 58 -72 -31 5 77 rlineto
          -71 hlineto
          5 -77 -73 31 -18 -58 71 -22 -47 -71 rlineto
          endchar
        </CharString>
        <CharString name="at">
          189 -146 54 76 60 -46 69 153 64 101 77 87 54 hstemhm
          42 56 125 80 220 80 136 56 hintmask 1101111111000000
          422 603 rmoveto
          -200 -180 -136 -237 -224 163 -152 200 58 61 13 27 55 hvcurveto
          -16 52 rlineto
          -22 -50 -43 -16 -63 hhcurveto
          -187 -122 144 178 185 132 134 188 191 130 -139 -186 -56 -13 -124 -72 -47 -4 54 59 hvcurveto
          96 vlineto
          91 -8 118 -173 -64 -58 -17 -33 -50 vhcurveto
          26 -71 rlineto
          27 32 47 17 54 hhcurveto
          90 24 -50 -73 hvcurveto
          9 -20 -40 13 -53 hhcurveto
          -91 -96 -36 -110 hvcurveto
          hintmask 1011111111000000
          -82 54 -58 99 67 62 27 41 41 vhcurveto
          hintmask 1101111111000000
          -38 5 18 -44 72 hhcurveto
          145 9 181 57 247 -177 134 -196 hvcurveto
          49 -516 rmoveto
          hintmask 1011111111000000
          -13 -25 -36 -7 -26 hhcurveto
          -51 -30 29 45 57 45 22 62 50 44 -15 -6 18 hvcurveto
          -38 vlineto
          -30 -15 -27 -36 -17 vhcurveto
          endchar
        </CharString>
        <CharString name="atilde">
          -71 callsubr
          69 78 -33 80 3 -20 -48 callsubr
          hintmask 0111101110000000
          -80 callgsubr
          hintmask 1011101110000000
          -106 callgsubr
          hintmask 0111101110000000
          -23 callgsubr
          hintmask 1011101110000000
          38 98 -102 callgsubr
          93 514 -88 callsubr
          hintmask 1011010110000000
          -93 callsubr
          hintmask 1011101110000000
          -52 callsubr
        </CharString>
        <CharString name="b">
          51 callsubr
          61 31 callgsubr
          hintmask 10110110
          359 -10 rmoveto
          140 105 119 151 148 -93 125 -136 -81 -62 -38 -63 -37 hvcurveto
          298 -134 vlineto
          hintmask 01111010
          -730 117 91 vlineto
          hintmask 10110110
          -62 36 65 -39 80 hhcurveto
          -37 114 rmoveto
          -51 -58 35 53 -18 hvcurveto
          125 vlineto
          57 25 51 45 59 hhcurveto
          80 57 -75 -85 -84 -59 -71 -86 hvcurveto
          endchar
        </CharString>
        <CharString name="backslash">
          -19 8 callsubr
          27 710 rmoveto
          436 -710 rlineto
          148 hlineto
          -435 710 rlineto
          endchar
        </CharString>
        <CharString name="bar">
          -384 -109 -21 905 -20 hstem
          79 114 vstem
          193 -130 rmoveto
          905 -114 -905 vlineto
          endchar
        </CharString>
        <CharString name="braceleft">
          -339 -10 -21 771 -20 hstemhm
          42 170 -120 120 -120 175 hintmask 11001000
          267 633 rmoveto
          107 -152 vlineto
          -8 -15 -5 -25 hvcurveto
          -237 vlineto
          hintmask 11100000
          -28 -22 -37 -28 vhcurveto
          -94 vlineto
          hintmask 11010000
          26 -5 24 -27 -35 vvcurveto
          -248 vlineto
          -24 14 -6 9 vhcurveto
          hintmask 11001000
          152 107 hlineto
          hintmask 11100000
          -55 215 hlineto
          26 -14 25 -20 18 vhcurveto
          21 19 13 23 27 vvcurveto
          204 vlineto
          endchar
        </CharString>
        <CharString name="braceright">
          -339 -10 -21 771 -20 hstemhm
          50 176 -121 121 -121 171 hintmask 11010000
          105 633 rmoveto
          -204 vlineto
          -27 14 -23 21 -19 vhcurveto
          -21 -18 -14 -25 -26 vvcurveto
          -215 vlineto
          hintmask 11100000
          -55 -107 153 hlineto
          8 15 6 24 hvcurveto
          248 vlineto
          hintmask 11001000
          35 23 27 27 5 vhcurveto
          94 vlineto
          hintmask 11100000
          -28 -22 37 28 hvcurveto
          237 vlineto
          25 -16 5 -7 vhcurveto
          -153 -107 hlineto
          endchar
        </CharString>
        <CharString name="bracketleft">
          -340 -40 107 566 107 hstemhm
          82 124 -124 187 hintmask 11010000
          269 -40 rmoveto
          107 vlineto
          hintmask 11100000
          -63 566 hlineto
          hintmask 11010000
          63 107 -187 -780 hlineto
          endchar
        </CharString>
        <CharString name="bracketright">
          -340 -40 107 566 107 hstemhm
          46 188 -124 124 hintmask 11100000
          234 -40 rmoveto
          780 -188 -107 vlineto
          hintmask 11010000
          64 -566 hlineto
          hintmask 11100000
          -64 -107 hlineto
          endchar
        </CharString>
        <CharString name="breve">
          -328 596 -17 callgsubr
          hintmask 10000000
          164 656 rmoveto
          hintmask 01000000
          -91 callsubr
          hintmask 10000000
          -56 callgsubr
        </CharString>
        <CharString name="brokenbar">
          -381 -109 -21 905 -20 hstem
          81 114 vstem
          81 264 rmoveto
          -394 114 394 vlineto
          -114 511 rmoveto
          -394 114 394 vlineto
          endchar
        </CharString>
        <CharString name="bullet">
          -293 245 209 hstem
          77 209 vstem
          286 350 rmoveto
          57 -47 47 -58 -57 -47 -47 -57 -58 47 -47 57 58 47 47 58 vhcurveto
          endchar
        </CharString>
        <CharString name="c">
          -92 -70 callsubr
          hstem
          28 138 vstem
          28 262 -94 callsubr
          endchar
        </CharString>
        <CharString name="c_t">
          291 -10 124 -102 -21 428 114 -9 -20 174 60 hstemhm
          28 138 258 57 173 134 hintmask 10011111
          911 133 rmoveto
          -7 -16 -29 -12 -27 hhcurveto
          -29 88 callsubr
          256 110 103 -110 vlineto
          108 -1 106 -181 -119 -63 -57 -91 -34 12 -33 15 -30 vhcurveto
          hintmask 10101111
          26 -42 -39 14 -64 hhcurveto
          -179 -99 -129 -142 -142 104 -130 172 111 91 54 82 37 hvcurveto
          -131 40 rlineto
          -39 -17 -49 -23 -42 hhcurveto
          -78 -60 67 90 87 54 71 81 46 39 -20 -40 24 hvcurveto
          131 40 rlineto
          -18 36 -42 85 64 vvcurveto
          52 24 42 63 vhcurveto
          hintmask 01011111
          80 5 -57 -97 1 hvcurveto
          -69 -103 69 -301 hlineto
          -93 62 -36 73 58 24 callsubr
        </CharString>
        <CharString name="cacute">
          -92 -70 callsubr
          -3 callsubr
          138 vstem
          431 730 -102 callsubr
          -310 -323 -94 callsubr
          endchar
        </CharString>
        <CharString name="caron">
          -287 618 -21 133 -20 hstem
          30 698 -93 callgsubr
          endchar
        </CharString>
        <CharString name="caron.alt">
          2 callsubr
          226 730 -38 callsubr
        </CharString>
        <CharString name="ccaron">
          -92 -70 callsubr
          0 64 81 callgsubr
          28 138 hintmask 10111000
          149 698 -93 callgsubr
          -191 -468 rmoveto
          -145 107 -127 170 115 87 57 79 36 vhcurveto
          -131 40 rlineto
          -35 -16 -45 -27 -48 hhcurveto
          -75 -62 66 92 hvcurveto
          hintmask 11011000
          93 60 64 77 45 40 -22 -38 22 vhcurveto
          131 40 rlineto
          80 -40 -83 54 -114 hhcurveto
          -171 -105 -125 -146 hvcurveto
          endchar
        </CharString>
        <CharString name="ccedilla">
          -92 46 callsubr
          29 84 callsubr
          204 63 vstem
          198 -80 callsubr
          21 34 99 9 74 53 33 72 rlinecurve
          -131 40 rlineto
          -35 -16 -45 -27 -48 hhcurveto
          -75 -62 66 92 93 60 64 77 45 40 -22 -38 22 hvcurveto
          131 40 rlineto
          80 -40 -83 54 -114 hhcurveto
          -171 -105 -125 -146 -138 96 -121 156 -12 hvcurveto
          -42 -83 -68 callgsubr
        </CharString>
        <CharString name="ccircumflex">
          -92 -70 callsubr
          -3 callsubr
          138 vstem
          219 597 -100 callsubr
          -121 -367 -94 callsubr
          endchar
        </CharString>
        <CharString name="cdotaccent">
          -92 -70 callsubr
          71 126 hstem
          28 138 77 121 vstem
          28 262 -94 callsubr
          336 342 -90 callgsubr
          endchar
        </CharString>
        <CharString name="cedilla">
          -330 46 callsubr
          66 -20 hstem
          193 63 vstem
          21 -80 callsubr
          35 54 -52 16 -61 -120 -68 callgsubr
        </CharString>
        <CharString name="cent">
          -64 -99 -21 131 -21 655 -20 hstem
          39 138 99 60 vstem
          336 -120 rmoveto
          110 vlineto
          69 111 45 91 39 hvcurveto
          -131 40 -11 -31 -41 -22 -36 -6 rlinecurve
          308 vlineto
          34 -3 33 -19 19 -34 130 40 rcurveline
          -43 84 -80 46 -93 3 rrcurveto
          113 -60 -113 vlineto
          -152 -22 -85 -117 -135 vvcurveto
          -127 99 -129 138 -11 vhcurveto
          -111 vlineto
          -99 378 rmoveto
          71 37 68 62 12 vhcurveto
          -296 vlineto
          -60 19 -39 60 66 vvcurveto
          endchar
        </CharString>
        <CharString name="circumflex">
          -287 618 -21 133 -20 hstem
          100 597 -52 callgsubr
        </CharString>
        <CharString name="colon">
          -409 0 144 230 144 hstem
          69 109 vstem
          178 374 rmoveto
          144 -109 -144 vlineto
          109 -374 rmoveto
          144 -109 -144 vlineto
          endchar
        </CharString>
        <CharString name="colonmonetary">
          -86 -120 224 -114 114 -92 -21 428 226 -113 -20 21 -20 hstemhm
          32 137 41 62 60 62 hintmask 1001001110000000
          210 -120 rmoveto
          62 112 hlineto
          hintmask 0101001110000000
          -1 11 12 -1 13 hhcurveto
          hintmask 0011001110000000
          8 8 1 8 hhcurveto
          hintmask 1001001110000000
          -111 62 121 vlineto
          72 21 53 46 27 58 -130 40 rcurveline
          -35 -17 -45 -27 -47 hhcurveto
          -76 -62 66 92 93 60 64 77 46 39 -22 -38 23 hvcurveto
          130 40 -29 58 -52 44 -69 20 rlinecurve
          124 -62 vlineto
          hintmask 1000101110000000
          -113 vlineto
          hintmask 1000011110000000
          -8 -8 1 -8 hhcurveto
          -13 -12 -1 -1 -11 hvcurveto
          hintmask 1001001110000000
          114 -62 -127 vlineto
          -113 -38 -65 -102 -116 vvcurveto
          -115 66 -103 112 -38 vhcurveto
          endchar
        </CharString>
        <CharString name="comma">
          -424 -94 -21 259 -20 hstem
          58 116 vstem
          133 -115 rmoveto
          41 119 rlineto
          140 -116 86 callsubr
        </CharString>
        <CharString name="commaaccent">
          -455 0 callgsubr
          hstem
          61 113 vstem
          134 -88 callgsubr
          endchar
        </CharString>
        <CharString name="copyright">
          185 -7 50 73 114 249 114 72 50 hstem
          43 53 78 137 433 54 vstem
          417 -7 rmoveto
          219 66 callsubr
          -219 -215 67 callgsubr
          215 hvcurveto
          50 vmoveto
          -184 -137 136 175 175 138 136 183 188 139 -136 -175 -184 -143 -127 -184 hvcurveto
          9 73 rmoveto
          113 79 63 68 31 hvcurveto
          -131 39 rlineto
          -35 -18 -38 -21 -38 hhcurveto
          -55 -58 45 80 67 42 57 70 33 39 -13 -41 20 hvcurveto
          130 40 rlineto
          78 -36 -79 50 -106 hhcurveto
          -166 -84 -117 -121 -135 102 -104 150 hvcurveto
          endchar
        </CharString>
        <CharString name="currency">
          -104 133 -21 39 84 205 85 42 -20 hstem
          84 99 187 99 vstem
          100 567 rmoveto
          -54 -55 68 -69 rlineto
          -20 -30 -10 -37 -39 vvcurveto
          -39 11 -36 20 -31 vhcurveto
          -69 -69 49 -50 73 69 rlineto
          -19 29 37 -11 43 hhcurveto
          42 36 11 18 29 hvcurveto
          72 -68 50 50 -69 68 rlineto
          21 31 11 37 39 vvcurveto
          40 -11 37 -20 31 vhcurveto
          68 67 -55 55 -69 -71 rlineto
          18 -29 -36 11 -40 hhcurveto
          -42 -36 -11 -19 -29 hvcurveto
          13 -158 rmoveto
          60 41 43 53 53 40 -42 -60 -60 -40 -43 -53 -53 -41 42 60 vhcurveto
          endchar
        </CharString>
        <CharString name="d">
          -11 -10 -1 callsubr
          272 134 hintmask 10111100
          278 -10 -31 callsubr
          hintmask 01111100
          27 callgsubr
          -82 callgsubr
          hintmask 10111100
          -89 callsubr
        </CharString>
        <CharString name="d.alt">
          51 callsubr
          29 139 272 134 hintmask 01111100
          574 hmoveto
          730 -134 -298 vlineto
          59 -36 -64 42 -78 hhcurveto
          -134 -99 -120 -151 hvcurveto
          hintmask 10111100
          -152 104 -120 145 72 56 34 58 34 vhcurveto
          hintmask 01111100
          -82 vlineto
          192 vmoveto
          hintmask 10111100
          -51 -17 -58 -37 -53 hhcurveto
          -82 -62 68 87 83 56 77 80 55 59 -42 -60 22 hvcurveto
          endchar
        </CharString>
        <CharString name="dagger">
          -195 -109 -21 341 120 444 -20 hstem
          167 127 vstem
          294 -130 rmoveto
          341 131 120 -131 444 -127 -444 -132 -120 132 -341 vlineto
          endchar
        </CharString>
        <CharString name="daggerdbl">
          -182 -109 -21 232 120 112 121 320 -20 hstem
          174 127 vstem
          301 -130 rmoveto
          232 131 120 -131 112 131 121 -131 320 -127 -320 -132 -121 132 -112 -132 -120 132 -232 vlineto
          endchar
        </CharString>
        <CharString name="dcaron">
          -11 -10 -1 callsubr
          272 134 hintmask 10111100
          780 730 -102 callsubr
          -409 -595 -31 callsubr
          hintmask 01111100
          27 callgsubr
          -82 callgsubr
          hintmask 10111100
          -89 callsubr
        </CharString>
        <CharString name="dcroat">
          -11 -10 114 -90 -21 426 114 64 79 54 78 callgsubr
          272 134 hintmask 10111110
          278 -10 -31 callsubr
          hintmask 01111110
          27 callgsubr
          15 17 2 5 25 -63 callsubr
          -8 -19 callgsubr
          443 63 79 -63 54 -134 -54 -100 -79 100 -165 vlineto
          59 -35 -65 42 -77 hhcurveto
          -136 -98 -120 -151 hvcurveto
          hintmask 10111110
          -89 callsubr
        </CharString>
        <CharString name="ddotbelow">
          -11 -29 callsubr
          60 -1 callsubr
          97 121 54 134 hintmask 11011111
          386 -31 callgsubr
          13 186 -31 callsubr
          hintmask 10111111
          27 callgsubr
          -82 callgsubr
          hintmask 11011111
          -89 callsubr
        </CharString>
        <CharString name="degree">
          -371 519 205 hstem
          40 205 vstem
          40 625 rmoveto
          -62 43 -44 59 60 43 42 64 56 -43 43 -60 -59 -43 -43 -56 vhcurveto
          75 23 rmoveto
          7 8 9 4 10 hhcurveto
          10 11 -4 -7 6 hvcurveto
          6 -7 4 -9 -11 vvcurveto
          -9 -4 -10 -6 -6 vhcurveto
          -7 -6 -11 -5 -10 hhcurveto
          -10 -9 5 7 -8 hvcurveto
          -6 6 -4 10 9 vvcurveto
          11 4 9 6 7 vhcurveto
          endchar
        </CharString>
        <CharString name="dieresis">
          -199 604 119 hstem
          77 68 callsubr
          188 604 -47 callsubr
        </CharString>
        <CharString name="divide">
          -145 48 129 67 107 68 128 hstem
          200 113 vstem
          313 419 rmoveto
          128 -113 -128 vlineto
          113 -371 rmoveto
          129 -113 -129 vlineto
          258 196 rmoveto
          107 -404 -107 vlineto
          endchar
        </CharString>
        <CharString name="dollar">
          -22 -117 233 -123 123 477 120 -120 222 hstemhm
          63 142 95 51 97 147 hintmask 10011110
          570 636 rmoveto
          -56 38 -76 33 -87 7 rrcurveto
          101 -60 vlineto
          hintmask 10101110
          -102 vlineto
          -129 -10 -99 -77 -134 vvcurveto
          -109 66 -45 135 -38 vhcurveto
          12 -4 12 -3 12 -3 rrcurveto
          -172 vlineto
          -96 11 -88 52 -21 22 -61 -119 rcurveline
          71 -51 93 -32 93 -7 rrcurveto
          -111 60 vlineto
          hintmask 01101110
          110 vlineto
          131 5 113 59 146 vvcurveto
          130 -88 44 -140 36 vhcurveto
          -25 6 rlineto
          173 vlineto
          77 -8 73 -42 17 -18 rrcurveto
          -61 -335 rmoveto
          -46 -37 -25 -69 -2 vhcurveto
          161 vlineto
          66 -21 40 -22 -45 vvcurveto
          -243 325 rmoveto
          47 32 28 63 4 vhcurveto
          -162 vlineto
          -63 19 -32 19 45 vvcurveto
          endchar
        </CharString>
        <CharString name="dotaccent">
          -435 604 126 hstem
          50 121 vstem
          171 604 -90 callgsubr
          endchar
        </CharString>
        <CharString name="dotbelow">
          -435 -29 callsubr
          hstem
          50 121 vstem
          171 -31 callgsubr
          endchar
        </CharString>
        <CharString name="dotlessi">
          8 callgsubr
          61 -34 callsubr
          endchar
        </CharString>
        <CharString name="dotlessj">
          75 callgsubr
          hstem
          61 -5 callsubr
          13 -196 rmoveto
          101 81 70 callgsubr
          528 -134 -538 vlineto
          -39 -30 -27 -35 -21 -22 7 15 -16 vhcurveto
          -57 58 callgsubr
          endchar
        </CharString>
        <CharString name="e">
          -71 callgsubr
          -87 callsubr
          endchar
        </CharString>
        <CharString name="eacute">
          -14 callgsubr
          430 730 -102 callsubr
          -33 -595 -107 callgsubr
          endchar
        </CharString>
        <CharString name="ebreve">
          -71 callgsubr
          63 -17 callgsubr
          28 140 hintmask 11110100
          -104 callgsubr
          -138 350 rmoveto
          hintmask 11101100
          -91 callsubr
          hintmask 11110100
          -56 callgsubr
        </CharString>
        <CharString name="ecaron">
          -57 -10 98 131 87 0 130 97 64 81 callgsubr
          28 140 hintmask 11011100
          148 698 -93 callgsubr
          86 -740 rmoveto
          116 90 57 80 38 71 callsubr
          -70 -62 49 82 -7 hvcurveto
          405 hlineto
          2 11 1 17 17 vvcurveto
          142 -102 127 -171 -171 -106 -125 -149 -145 107 -124 169 vhcurveto
          -27 callsubr
          hintmask 10111100
          -87 callgsubr
          endchar
        </CharString>
        <CharString name="ecircumflex">
          -14 callgsubr
          218 597 -100 callsubr
          156 -639 -107 callgsubr
          endchar
        </CharString>
        <CharString name="edblgrave">
          -14 callgsubr
          371 585 -95 callsubr
          179 -740 -107 callgsubr
          endchar
        </CharString>
        <CharString name="edieresis">
          -79 callgsubr
        </CharString>
        <CharString name="edotaccent">
          -71 callgsubr
          71 126 hstem
          28 140 74 121 -99 callgsubr
          -77 298 -90 callgsubr
          endchar
        </CharString>
        <CharString name="edotbelow">
          -57 -29 callsubr
          60 98 131 87 130 97 hstem
          28 140 74 121 -99 callgsubr
          -77 -502 -90 callgsubr
          endchar
        </CharString>
        <CharString name="egrave">
          -57 -10 98 131 87 130 97 197 -20 -87 callsubr
          -172 279 -85 callgsubr
        </CharString>
        <CharString name="eight">
          -83 callsubr
        </CharString>
        <CharString name="eight.denominator">
          -236 -5 79 116 65 90 76 hstemhm
          32 -32 callgsubr
          hintmask 11110010
          388 123 23 callsubr
          hintmask 11101100
          -64 callsubr
          hintmask 11110010
          -81 callsubr
          hintmask 11101100
          -67 callgsubr
          endchar
        </CharString>
        <CharString name="eight.lnum">
          -83 callsubr
        </CharString>
        <CharString name="eight.numerator">
          -236 303 80 116 65 90 76 hstemhm
          32 -32 callgsubr
          hintmask 11110010
          388 432 rmoveto
          49 -36 33 -50 20 vhcurveto
          hintmask 11101100
          88 callgsubr
          40 vvcurveto
          68 -85 45 -77 -77 -85 -46 -69 38 callsubr
          -19 -40 -29 -52 vvcurveto
          -74 78 -57 100 96 82 54 75 vhcurveto
          -81 8 rmoveto
          -34 -47 -23 -49 -47 -52 22 35 35 77 callsubr
          -23 -36 vhcurveto
          hintmask 11101100
          -179 169 rmoveto
          27 38 18 44 42 40 -17 -28 -29 -44 -16 -38 -39 -43 16 29 vhcurveto
          endchar
        </CharString>
        <CharString name="eightinferior">
          -236 -90 79 116 65 90 77 hstemhm
          32 -32 callgsubr
          hintmask 11110010
          388 39 rmoveto
          49 79 callsubr
          hintmask 11101100
          88 callgsubr
          40 vvcurveto
          68 -85 45 -77 -77 -85 -46 -69 38 callsubr
          -19 -40 -29 -52 vvcurveto
          -74 78 -57 100 96 82 54 75 vhcurveto
          -81 8 rmoveto
          -34 -47 -24 -49 -47 -52 22 36 35 47 23 16 callsubr
          -27 -29 -44 -17 -38 -39 -43 17 28 vhcurveto
          endchar
        </CharString>
        <CharString name="eightsuperior">
          -236 388 79 116 65 90 77 hstemhm
          32 -32 callgsubr
          hintmask 11110010
          388 516 rmoveto
          50 -36 33 -50 20 vhcurveto
          hintmask 11101100
          88 callgsubr
          39 vvcurveto
          69 -85 45 -77 -77 -85 -46 -69 38 callsubr
          -19 -40 -30 -52 vvcurveto
          -73 78 -57 100 96 82 53 75 vhcurveto
          -81 9 rmoveto
          -34 -47 -24 -49 -47 -52 22 36 34 47 24 16 callsubr
          -28 -28 -44 -17 -38 -39 -43 16 29 vhcurveto
          endchar
        </CharString>
        <CharString name="einvertedbreve">
          -71 callgsubr
          63 -13 callsubr
          28 140 hintmask 11101100
          306 670 rmoveto
          hintmask 11110100
          -92 callsubr
          hintmask 11101100
          -23 callsubr
          -2 -680 -107 callgsubr
          endchar
        </CharString>
        <CharString name="ellipsis">
          -54 0 144 hstem
          58 110 78 110 78 110 cntrmask 01110000
          168 hmoveto
          23 callgsubr
          298 hmoveto
          23 callgsubr
          298 hmoveto
          23 callgsubr
          endchar
        </CharString>
        <CharString name="emacron">
          -71 callgsubr
          100 83 -87 callsubr
          13 327 -37 callgsubr
        </CharString>
        <CharString name="emdash">
          272 214 121 hstem
          870 214 rmoveto
          121 -812 -121 vlineto
          endchar
        </CharString>
        <CharString name="emspace">
          273 endchar
        </CharString>
        <CharString name="endash">
          18 callsubr
        </CharString>
        <CharString name="eng">
          -52 45 callgsubr
          415 118 -9 -20 -48 callgsubr
          219 133 hintmask 11101010
          366 -196 rmoveto
          100 81 70 callgsubr
          331 vlineto
          102 -26 104 -131 -91 -78 -40 -66 -39 vhcurveto
          hintmask 11011010
          -24 callsubr
          hintmask 11100110
          134 306 hlineto
          63 20 62 46 54 hhcurveto
          52 31 -37 -84 hvcurveto
          -308 vlineto
          -39 -30 -27 -35 -21 -22 7 15 -16 vhcurveto
          -57 58 callgsubr
          endchar
        </CharString>
        <CharString name="enspace">
          -54 endchar
        </CharString>
        <CharString name="eogonek">
          -57 -177 -21 189 97 131 87 130 97 hstem
          28 140 50 81 vstem
          333 -198 rmoveto
          -61 callsubr
          26 25 28 51 31 vhcurveto
          81 17 62 49 30 63 -115 32 rcurveline
          -43 -17 -54 -28 -53 hhcurveto
          -70 -62 49 82 -7 hvcurveto
          405 hlineto
          2 11 1 17 17 vvcurveto
          142 -102 127 -171 -171 -106 -125 -149 -141 100 -120 160 -7 vhcurveto
          -47 -33 -23 -35 -34 -43 callgsubr
          -165 504 1 callsubr
        </CharString>
        <CharString name="equal">
          -220 144 87 90 87 hstem
          375 144 rmoveto
          87 -313 -87 vlineto
          313 177 rmoveto
          87 -313 -87 vlineto
          endchar
        </CharString>
        <CharString name="estimated">
          -48 -10 46 210 49 192 46 hstem
          35 125 301 124 vstem
          310 36 rmoveto
          -59 -55 27 42 -36 hvcurveto
          141 425 vlineto
          160 -112 127 -163 -163 -112 -125 -148 -145 110 -125 165 104 73 36 47 49 vhcurveto
          -31 35 rlineto
          -39 -39 -62 -33 -94 hhcurveto
          451 vmoveto
          59 55 -27 -49 37 hvcurveto
          -116 -301 117 vlineto
          48 36 55 27 59 hhcurveto
          endchar
        </CharString>
        <CharString name="eth">
          -43 -10 114 260 108 258 -20 hstem
          31 138 274 -4 callgsubr
          487 713 rmoveto
          -79 -45 -27 23 -30 21 -33 18 rlinecurve
          -172 hlineto
          66 -36 52 -36 42 -37 -85 -47 rcurveline
          39 -52 93 52 49 -56 27 -60 14 -64 rlinecurve
          47 -37 -64 31 -69 hhcurveto
          -135 -107 -107 -132 -139 118 -104 154 160 117 114 186 110 -41 124 -84 97 hvcurveto
          71 39 rlineto
          -357 -426 rmoveto
          74 59 56 79 77 59 -53 -74 -74 -59 -59 -79 -78 -58 56 74 vhcurveto
          endchar
        </CharString>
        <CharString name="etilde">
          -71 callgsubr
          69 -33 callgsubr
          28 140 hintmask 11110110
          -104 callgsubr
          -74 296 -88 callsubr
          hintmask 11101010
          -93 callsubr
          hintmask 11110110
          -52 callsubr
        </CharString>
        <CharString name="exclam">
          -349 0 151 566 -20 hstem
          87 -5 callsubr
          221 267 rmoveto
          450 -134 -450 vlineto
          134 -267 rmoveto
          151 -134 -151 vlineto
          endchar
        </CharString>
        <CharString name="exclamdown">
          -351 16 -21 566 151 hstem
          86 -5 callsubr
          86 445 rmoveto
          -450 134 450 vlineto
          -134 267 rmoveto
          -151 134 151 vlineto
          endchar
        </CharString>
        <CharString name="f">
          -286 21 -21 394 102 131 113 hstem
          93 -5 callsubr
          227 hmoveto
          394 128 102 -128 37 18 callgsubr
          -107 -68 -82 -130 hvcurveto
          -32 -69 -102 69 -394 vlineto
          endchar
        </CharString>
        <CharString name="f_f">
          -14 21 -21 394 21 callsubr
          128 134 hintmask 11011100
          567 626 rmoveto
          30 23 -9 -9 19 hvcurveto
          26 101 rlineto
          14 -34 -40 17 -51 hhcurveto
          -63 -46 -25 -40 -31 hvcurveto
          hintmask 11101100
          17 -40 -44 12 -45 hhcurveto
          -113 -64 -85 -110 -1 hvcurveto
          -13 -69 -102 69 43 callsubr
          128 43 callsubr
          138 102 -138 37 vlineto
          hintmask 11011100
          49 23 44 55 vhcurveto
          -212 -130 rmoveto
          -128 17 hlineto
          hintmask 11101100
          44 20 33 37 callsubr
        </CharString>
        <CharString name="f_f_i">
          175 21 -21 394 21 callsubr
          128 134 147 135 hintmask 11011110
          93 hmoveto
          134 394 128 43 callsubr
          147 -394 135 496 -282 37 hlineto
          49 27 44 64 44 52 -22 -29 33 vhcurveto
          53 100 rlineto
          38 -60 -66 27 -69 hhcurveto
          -74 -57 -25 -40 -36 hvcurveto
          hintmask 11101110
          17 -40 -44 12 -45 hhcurveto
          -113 -65 -89 -106 hvcurveto
          -13 -69 -102 69 vlineto
          134 102 rmoveto
          17 vlineto
          42 20 35 37 callsubr
        </CharString>
        <CharString name="f_f_l">
          264 0 112 -99 -21 402 21 callsubr
          129 134 173 134 hintmask 01110111
          796 -8 rmoveto
          60 64 23 2 2 hvcurveto
          -18 108 rlineto
          hintmask 10101111
          -2 51 callgsubr
          -71 79 -151 -77 -60 -22 -43 -38 vhcurveto
          hintmask 10110111
          17 -40 -40 12 -47 hhcurveto
          -110 -70 -86 -109 hvcurveto
          -13 -69 -102 69 43 callsubr
          129 43 callsubr
          87 102 -87 16 vlineto
          hintmask 01101111
          61 23 53 63 70 17 -50 -55 vhcurveto
          -417 vlineto
          -60 50 -52 83 vhcurveto
          -569 504 rmoveto
          18 vlineto
          hintmask 10110111
          40 25 36 49 19 23 -3 -10 20 vhcurveto
          -5 -10 -2 -55 -16 vvcurveto
          endchar
        </CharString>
        <CharString name="f_i">
          -88 21 -21 394 102 130 114 hstem
          93 134 147 -5 callsubr
          93 hmoveto
          134 394 147 -394 134 496 -281 37 hlineto
          49 28 44 60 48 49 -21 -30 35 vhcurveto
          53 100 rlineto
          37 -56 -62 28 -76 hhcurveto
          -134 -79 -96 -116 hvcurveto
          -32 -69 -102 69 vlineto
          endchar
        </CharString>
        <CharString name="f_l">
          1 -8 120 -91 -21 394 102 130 114 hstemhm
          93 134 173 134 hintmask 10111100
          640 125 rmoveto
          -1 51 callgsubr
          -70 79 -152 -137 -82 -71 -129 vhcurveto
          -44 -69 -102 69 vlineto
          hintmask 01111100
          43 callsubr
          87 102 -87 18 vlineto
          66 1 23 46 65 hhcurveto
          68 16 -49 -60 hvcurveto
          -413 vlineto
          hintmask 10111100
          -60 49 -52 84 60 64 23 2 2 vhcurveto
          endchar
        </CharString>
        <CharString name="five">
          -102 -149 118 235 115 130 122 hstem
          386 -4 callgsubr
          290 319 rmoveto
          -45 -32 -12 -17 -16 hvcurveto
          29 61 callgsubr
          -407 -3 -16 vhcurveto
          117 hlineto
          35 23 40 21 44 hhcurveto
          66 49 -47 -69 -71 -51 -48 -72 -60 -60 33 52 -37 hvcurveto
          -77 -80 rlineto
          -76 43 87 -47 103 hhcurveto
          150 111 97 143 135 -99 93 -134 hvcurveto
          endchar
        </CharString>
        <CharString name="five.denominator">
          -262 -5 75 143 60 69 80 hstem
          286 81 vstem
          203 273 rmoveto
          -34 -26 -8 -10 -16 hvcurveto
          25 87 rlineto
          184 80 -242 hlineto
          -11 -65 -33 -117 -13 -72 rrcurveto
          70 hlineto
          27 16 40 18 34 hhcurveto
          41 48 -23 -49 -47 -42 -24 -54 -50 -42 19 36 callsubr
          84 80 -71 56 -93 hvcurveto
          endchar
        </CharString>
        <CharString name="five.lnum">
          -87 -10 119 235 115 129 122 hstem
          393 138 vstem
          297 459 rmoveto
          -45 -31 -12 -18 -16 hvcurveto
          28 61 callgsubr
          -406 -3 -16 vhcurveto
          117 hlineto
          35 23 41 21 43 hhcurveto
          66 49 -48 -68 -71 -51 -48 -72 -60 -59 33 52 -38 hvcurveto
          -77 -80 rlineto
          -77 44 86 -47 103 hhcurveto
          151 111 98 143 134 -100 94 -134 hvcurveto
          endchar
        </CharString>
        <CharString name="five.numerator">
          -262 303 77 142 86 callgsubr
          -58 callsubr
          endchar
        </CharString>
        <CharString name="fiveeighths">
          320 42 callgsubr
          48 77 -35 76 101 60 69 79 hstemhm
          294 82 210 -32 callgsubr
          hintmask 0111011110010000
          212 -58 callsubr
          29 -589 -91 callgsubr
          762 76 23 callsubr
          hintmask 1010111101100000
          -64 callsubr
          hintmask 1011011110010000
          -81 callsubr
          hintmask 1010111101100000
          -67 callgsubr
          endchar
        </CharString>
        <CharString name="fiveinferior">
          -262 -90 76 143 86 callgsubr
          189 rmoveto
          -35 -25 -9 -9 -16 hvcurveto
          24 87 rlineto
          185 79 -243 hlineto
          -11 -65 -32 -116 -14 -72 rrcurveto
          70 hlineto
          26 17 39 19 35 hhcurveto
          41 47 -23 -49 -47 -42 -24 -53 -50 -42 19 29 -26 hvcurveto
          -48 -53 rlineto
          -43 30 61 -28 70 hhcurveto
          104 78 59 84 80 -71 56 -93 hvcurveto
          endchar
        </CharString>
        <CharString name="fivesuperior">
          -262 388 76 143 59 70 79 hstem
          286 81 vstem
          203 666 rmoveto
          -34 -26 -8 -10 -16 hvcurveto
          25 88 rlineto
          184 79 -242 hlineto
          -11 -65 -33 -116 -13 -73 rrcurveto
          70 hlineto
          27 16 40 19 34 hhcurveto
          41 48 -24 -49 -46 -42 -24 -54 -50 -42 18 36 callsubr
          85 80 -71 55 -93 hvcurveto
          endchar
        </CharString>
        <CharString name="florin">
          -108 48 callsubr
          440 103 164 113 hstem
          210 -5 callsubr
          162 -196 rmoveto
          100 82 76 109 hvcurveto
          371 128 103 -128 70 18 callgsubr
          -106 -69 -82 -130 hvcurveto
          -65 -68 -103 68 -374 vlineto
          -39 -29 -27 -35 -21 -23 -43 callsubr
          48 -15 49 hhcurveto
          endchar
        </CharString>
        <CharString name="four">
          -85 -106 -21 149 120 429 -20 hstemhm
          312 134 -119 119 hintmask 11110000
          446 -127 rmoveto
          149 88 120 -88 429 -91 vlineto
          -335 -430 rlineto
          -119 292 -149 vlineto
          hintmask 11101000
          15 495 rmoveto
          -226 -173 vlineto
          endchar
        </CharString>
        <CharString name="four.denominator">
          -246 0 171 -18 callsubr
          hmoveto
          hintmask 01110000
          -10 callsubr
          vlineto
          hintmask 10110000
          21 callgsubr
          endchar
        </CharString>
        <CharString name="four.lnum">
          -70 21 -21 161 121 428 -20 hstemhm
          325 134 -119 119 hintmask 11110000
          459 hmoveto
          161 88 121 -88 428 -92 vlineto
          -341 -429 rlineto
          -120 299 -161 vlineto
          hintmask 11101000
          15 508 rmoveto
          -226 -179 vlineto
          endchar
        </CharString>
        <CharString name="four.numerator">
          -246 310 169 -18 callsubr
          310 rmoveto
          hintmask 01110000
          91 -21 callgsubr
          -251 rlineto
          -78 221 vlineto
          hintmask 10110000
          -91 vlineto
          3 323 rmoveto
          -154 -147 vlineto
          endchar
        </CharString>
        <CharString name="fourinferior">
          -247 -84 170 -18 callsubr
          -84 rmoveto
          hintmask 01110000
          92 -21 callgsubr
          -251 rlineto
          -78 221 vlineto
          hintmask 10110000
          -92 vlineto
          3 324 rmoveto
          -154 -147 vlineto
          endchar
        </CharString>
        <CharString name="foursuperior">
          -246 394 170 -18 callsubr
          394 rmoveto
          hintmask 01110000
          92 -2 callgsubr
          vlineto
          hintmask 10110000
          -92 vlineto
          3 323 rmoveto
          -153 -147 vlineto
          endchar
        </CharString>
        <CharString name="fraction">
          -456 14 -21 725 -20 hstem
          -141 -7 -27 callgsubr
        </CharString>
        <CharString name="franc">
          -47 21 -21 104 91 99 112 183 121 hstem
          112 -4 callgsubr
          249 hmoveto
          104 112 91 -112 99 283 112 -283 183 340 121 -477 -515 -80 -91 80 -104 vlineto
          endchar
        </CharString>
        <CharString name="g">
          -49 callgsubr
          hstemhm
          30 5 callsubr
          hintmask 11011100
          266 -28 callgsubr
          hintmask 11011010
          -117 -92 hlineto
          hintmask 11101100
          -94 callgsubr
          endchar
        </CharString>
        <CharString name="gacute">
          -11 callsubr
          442 730 -102 callsubr
          -84 -588 -90 callsubr
          hintmask 11011101
          -117 -92 hlineto
          hintmask 11101110
          -94 callgsubr
          endchar
        </CharString>
        <CharString name="gbreve">
          -49 callgsubr
          92 -17 callgsubr
          29 5 callsubr
          hintmask 1101101100000000
          265 -28 callgsubr
          hintmask 1101101010000000
          -117 -92 hlineto
          hintmask 1110101100000000
          -94 callgsubr
          30 552 rmoveto
          hintmask 1110011100000000
          -91 callsubr
          hintmask 1110101100000000
          -56 callgsubr
        </CharString>
        <CharString name="gcircumflex">
          -11 callsubr
          256 597 -100 callsubr
          79 -632 -90 callsubr
          hintmask 11011101
          -117 -92 hlineto
          hintmask 11101110
          -94 callgsubr
          endchar
        </CharString>
        <CharString name="gcommaaccent">
          -49 callgsubr
          77 166 hstemhm
          29 137 102 113 58 28 callgsubr
          hintmask 1101111100000000
          308 747 rmoveto
          -40 -72 rlineto
          -94 113 94 -39 vlineto
          27 72 rlineto
          -104 -750 -90 callsubr
          hintmask 1101111010000000
          -117 -92 hlineto
          hintmask 1110111100000000
          -94 callgsubr
          endchar
        </CharString>
        <CharString name="gdotaccent">
          -49 callgsubr
          100 126 hstemhm
          29 137 114 121 38 28 callgsubr
          hintmask 1101111100000000
          265 -28 callgsubr
          hintmask 1101111010000000
          -117 -92 hlineto
          hintmask 1110111100000000
          -94 callgsubr
          91 500 -90 callgsubr
          endchar
        </CharString>
        <CharString name="germandbls">
          -98 -6 123 -96 -21 333 120 147 114 hstemhm
          61 127 59 231 -127 127 -88 140 hintmask 10111100
          247 -6 rmoveto
          hintmask 10111001
          149 3 134 60 153 vvcurveto
          96 -53 72 -86 24 vhcurveto
          hintmask 01111010
          47 17 40 62 69 vvcurveto
          101 -84 63 -111 -127 -95 -80 -112 vhcurveto
          -522 127 499 vlineto
          45 20 56 64 32 47 -17 -56 -44 -29 -30 -48 vhcurveto
          -19 -120 21 hlineto
          hintmask 10111001
          59 55 -39 -69 hvcurveto
          hintmask 10111100
          -74 -61 -33 -82 -1 vhcurveto
          endchar
        </CharString>
        <CharString name="grave">
          2 callsubr
          140 585 -85 callgsubr
        </CharString>
        <CharString name="greater">
          -141 -6 -21 570 -20 hstem
          483 288 rmoveto
          -422 255 rlineto
          -142 vlineto
          227 -142 -227 -136 rlineto
          -150 vlineto
          422 250 rlineto
          endchar
        </CharString>
        <CharString name="greaterequal">
          -185 28 108 465 -20 hstem
          421 28 rmoveto
          108 -354 -108 vlineto
          353 408 rmoveto
          -350 165 rlineto
          -128 vlineto
          200 -80 -200 -74 rlineto
          -130 vlineto
          350 155 rlineto
          endchar
        </CharString>
        <CharString name="guillemotleft">
          -7 -16 callsubr
          292 -65 rmoveto
          263 -177 rlineto
          110 vlineto
          -157 103 157 109 rlineto
          109 vlineto
          -263 -189 rlineto
          endchar
        </CharString>
        <CharString name="guillemotright">
          -7 67 -21 431 -20 hstem
          613 288 -38 callgsubr
          -291 65 -38 callgsubr
          endchar
        </CharString>
        <CharString name="guilsinglleft">
          -298 -16 callsubr
          endchar
        </CharString>
        <CharString name="guilsinglright">
          -298 67 -21 431 -20 hstem
          322 288 -38 callgsubr
          endchar
        </CharString>
        <CharString name="h">
          -30 callgsubr
          59 callsubr
          61 134 219 -5 callsubr
          548 327 -65 callgsubr
          endchar
        </CharString>
        <CharString name="hbar">
          -30 callgsubr
          64 79 54 -20 hstem
          61 134 219 -5 callsubr
          548 327 rmoveto
          103 -30 103 -135 -79 -70 -39 -67 -39 vhcurveto
          170 118 79 -118 54 -134 -54 -45 -79 45 -597 134 306 vlineto
          64 20 62 45 49 hhcurveto
          55 33 -39 -82 44 callgsubr
          endchar
        </CharString>
        <CharString name="hcircumflex">
          -30 callgsubr
          59 callsubr
          61 134 219 -5 callsubr
          306 598 rmoveto
          74 62 75 -62 61 32 -93 98 rlineto
          -86 hlineto
          -93 -98 rlineto
          304 -303 -65 callgsubr
          endchar
        </CharString>
        <CharString name="hdotbelow">
          -52 26 callsubr
          415 118 59 callsubr
          61 134 50 121 48 -5 callsubr
          548 327 -65 callgsubr
          -182 -31 callgsubr
          endchar
        </CharString>
        <CharString name="hungarumlaut">
          -290 2 callsubr
          185 730 -68 callsubr
          endchar
        </CharString>
        <CharString name="hyphen">
          -238 214 121 hstem
          361 214 rmoveto
          121 -303 -121 vlineto
          endchar
        </CharString>
        <CharString name="i">
          21 -16 callgsubr
          endchar
        </CharString>
        <CharString name="iacute">
          -42 callsubr
          61 -5 callsubr
          255 730 -102 callsubr
          33 -585 rmoveto
          -66 callsubr
          endchar
        </CharString>
        <CharString name="ibreve">
          -53 callgsubr
          92 -17 callgsubr
          61 134 hintmask 11101000
          195 hmoveto
          -66 callsubr
          66 656 rmoveto
          hintmask 11011000
          -91 callsubr
          hintmask 11101000
          -56 callgsubr
        </CharString>
        <CharString name="icircumflex">
          -42 callsubr
          61 -5 callsubr
          43 597 -100 callsubr
          222 -629 rmoveto
          -66 callsubr
          endchar
        </CharString>
        <CharString name="idblgrave">
          -42 callsubr
          61 -5 callsubr
          202 585 -95 callsubr
          239 -730 rmoveto
          -66 callsubr
          endchar
        </CharString>
        <CharString name="idieresis">
          -53 callgsubr
          100 119 hstemhm
          -24 81 callsubr
          87 604 -99 callsubr
          hintmask 11101000
          27 -604 rmoveto
          -66 callsubr
          endchar
        </CharString>
        <CharString name="idotbelow">
          -196 126 91 -16 callgsubr
          126 -793 -90 callgsubr
          endchar
        </CharString>
        <CharString name="igrave">
          -42 callsubr
          61 -34 callsubr
          32 585 -85 callgsubr
        </CharString>
        <CharString name="iinvertedbreve">
          -53 callgsubr
          92 -13 callsubr
          61 134 hintmask 11011000
          128 670 rmoveto
          hintmask 11101000
          -92 callsubr
          hintmask 11011000
          -23 callsubr
          67 -670 rmoveto
          -66 callsubr
          endchar
        </CharString>
        <CharString name="ij">
          -140 45 callgsubr
          524 -20 93 133 hstem
          61 134 126 -34 callsubr
          134 597 rmoveto
          133 -134 -133 vlineto
          212 -793 -97 callgsubr
          endchar
        </CharString>
        <CharString name="imacron">
          -53 callgsubr
          129 83 hstem
          61 -34 callsubr
          218 633 -37 callgsubr
        </CharString>
        <CharString name="infinity">
          60 168 102 162 103 hstem
          40 101 432 102 vstem
          209 535 rmoveto
          -96 -73 -82 -101 -100 83 -84 86 82 40 36 42 29 hvcurveto
          -42 30 39 -36 77 hhcurveto
          96 73 82 101 100 -66 84 -102 -81 -37 -40 -47 -31 hvcurveto
          47 -31 -39 40 -79 hhcurveto
          9 -265 rmoveto
          -36 -41 23 59 58 41 22 36 51 24 -37 -45 23 hvcurveto
          -44 -23 -25 -36 -50 hhcurveto
          280 hmoveto
          -49 -26 34 42 -22 hvcurveto
          47 21 23 39 53 hhcurveto
          37 38 -22 -58 -59 -38 -23 -37 hvcurveto
          endchar
        </CharString>
        <CharString name="integral">
          -299 -167 110 767 110 hstem
          132 4 rmoveto
          -38 2 -20 -23 -33 hhcurveto
          -14 -19 6 7 -16 hvcurveto
          -24 -96 rlineto
          -16 38 52 -11 39 hhcurveto
          84 47 47 82 -5 hvcurveto
          -38 687 rlineto
          39 -2 21 22 33 hhcurveto
          14 19 -6 -7 16 hvcurveto
          24 96 rlineto
          16 -38 -52 11 -40 hhcurveto
          -84 -46 -51 -78 4 hvcurveto
          endchar
        </CharString>
        <CharString name="iogonek">
          -175 -21 217 -11 callgsubr
          73 0 133 hstemhm
          37 81 -57 134 hintmask 11101000
          152 64 callsubr
          hintmask 11100100
          26 25 28 52 31 vhcurveto
          -66 callsubr
          hintmask 11011000
          57 hlineto
          -54 -34 -27 -38 -37 -43 callgsubr
          hintmask 11010100
          43 793 rmoveto
          133 -134 -133 vlineto
          endchar
        </CharString>
        <CharString name="itilde">
          -53 callgsubr
          98 -33 callgsubr
          61 134 hintmask 11101100
          195 hmoveto
          -66 callsubr
          130 34 callgsubr
          hintmask 11010100
          -93 callsubr
          hintmask 11101100
          -52 callsubr
        </CharString>
        <CharString name="j">
          -395 75 callgsubr
          93 133 hstem
          66 -5 callsubr
          18 -196 -97 callgsubr
          endchar
        </CharString>
        <CharString name="j.alt">
          -192 -21 810 129 hstem
          61 -5 callsubr
          61 -213 rmoveto
          134 730 -134 hlineto
          80 vmoveto
          133 129 -133 hlineto
          endchar
        </CharString>
        <CharString name="jcircumflex">
          75 callgsubr
          226 -20 hstem
          61 -5 callsubr
          13 -196 rmoveto
          101 81 70 callgsubr
          528 -134 -538 vlineto
          -39 -30 -27 -35 -21 -22 7 15 -16 vhcurveto
          -57 58 callgsubr
          30 793 -52 callgsubr
        </CharString>
        <CharString name="k">
          -98 21 -21 730 -20 hstem
          61 -5 callsubr
          562 hmoveto
          -22 callsubr
        </CharString>
        <CharString name="kcommaaccent">
          -98 0 callgsubr
          68 -21 730 -20 hstem
          61 134 34 113 vstem
          302 -88 callgsubr
          321 213 rmoveto
          -22 callsubr
        </CharString>
        <CharString name="kgreenlandic">
          -98 21 -21 523 -20 21 -20 80 callgsubr
          hintmask 11010000
          562 hmoveto
          -209 301 195 222 rlineto
          -143 hlineto
          -210 -236 rlineto
          hintmask 10110000
          237 -134 -524 134 156 vlineto
          72 71 152 -227 rlineto
          endchar
        </CharString>
        <CharString name="l">
          56 callsubr
          hstem
          60 -5 callsubr
          60 121 -83 callgsubr
          endchar
        </CharString>
        <CharString name="l.alt">
          -395 21 -21 730 -20 hstem
          63 -5 callsubr
          63 hmoveto
          134 730 -134 hlineto
          endchar
        </CharString>
        <CharString name="lacute">
          56 callsubr
          199 -20 hstem
          60 -5 callsubr
          251 909 -102 callsubr
          -98 -643 -83 callgsubr
          endchar
        </CharString>
        <CharString name="lcaron">
          56 callsubr
          hstem
          60 -5 callsubr
          413 730 -102 callsubr
          -260 -464 -83 callgsubr
          endchar
        </CharString>
        <CharString name="lcommaaccent">
          -339 0 callgsubr
          39 115 623 -20 hstemhm
          60 134 -64 113 hintmask 11101000
          203 -88 callgsubr
          hintmask 11110000
          -82 334 -83 callgsubr
          endchar
        </CharString>
        <CharString name="ldot">
          -259 -8 115 176 151 296 -20 hstem
          60 134 76 110 vstem
          60 121 -83 callgsubr
          320 -447 14 callsubr
        </CharString>
        <CharString name="less">
          -141 -6 -21 570 -20 hstem
          32 223 rmoveto
          422 -250 rlineto
          150 vlineto
          -227 136 227 142 rlineto
          142 vlineto
          -422 -255 rlineto
          endchar
        </CharString>
        <CharString name="lessequal">
          -185 28 108 465 -20 hstem
          403 28 rmoveto
          108 -353 -108 vlineto
          1 316 rmoveto
          350 -155 rlineto
          130 vlineto
          -200 74 200 80 rlineto
          128 vlineto
          -350 -165 rlineto
          endchar
        </CharString>
        <CharString name="lira">
          -123 -15 114 -85 85 -85 102 103 83 45 83 176 109 hstemhm
          80 120 hintmask 01011110
          44 347 rmoveto
          103 hlineto
          6 -15 4 -15 2 -15 rrcurveto
          -115 -83 109 hlineto
          -14 -46 -33 -44 -50 -42 29 -95 rcurveline
          13 42 50 9 35 hhcurveto
          hintmask 10011110
          65 59 -29 61 hhcurveto
          39 44 12 18 32 hvcurveto
          -33 100 rlineto
          -11 -29 -22 -5 -24 hhcurveto
          hintmask 00111110
          -45 -42 17 -48 hhcurveto
          -24 -24 -3 -9 -28 hvcurveto
          40 42 24 36 12 37 rrcurveto
          140 83 -132 hlineto
          -2 16 -3 15 -5 14 rrcurveto
          142 83 -178 hlineto
          -16 33 -15 30 31 vvcurveto
          47 35 35 50 48 57 -32 -46 33 vhcurveto
          71 82 rlineto
          65 -50 -77 40 -81 hhcurveto
          -114 -92 -79 -99 -38 14 -35 16 -34 hvcurveto
          -66 hlineto
          endchar
        </CharString>
        <CharString name="logicalnot">
          -44 127 -21 174 120 hstem
          433 114 vstem
          59 400 rmoveto
          -120 374 -174 114 294 vlineto
          endchar
        </CharString>
        <CharString name="lozenge">
          -93 21 -21 730 -20 hstem
          208 730 rmoveto
          -186 -364 186 -366 rlineto
          148 hlineto
          186 366 -186 364 rlineto
          -66 -638 rmoveto
          -141 283 132 259 141 -280 rlineto
          endchar
        </CharString>
        <CharString name="lslash">
          -312 -8 115 623 -20 hstem
          84 -5 callsubr
          84 121 rmoveto
          -82 49 -47 83 39 53 10 17 36 vhcurveto
          -18 102 rlineto
          -8 -17 -21 -6 -16 hhcurveto
          -34 -20 22 39 hvcurveto
          212 vlineto
          120 72 -34 72 -86 -52 rlineto
          258 -134 -338 vlineto
          -85 -51 34 -72 51 30 rlineto
          endchar
        </CharString>
        <CharString name="m">
          275 -6 callsubr
          -9 -20 -48 callgsubr
          206 134 206 134 hintmask 11010110
          875 327 rmoveto
          101 -28 105 -129 -83 -68 -39 -72 -42 vhcurveto
          62 -13 -48 49 -87 hhcurveto
          -86 -70 -38 -68 -39 hvcurveto
          hintmask 10110110
          -24 callsubr
          hintmask 11001110
          134 306 hlineto
          65 20 53 44 52 hhcurveto
          51 30 -37 -84 hvcurveto
          -294 134 305 vlineto
          65 20 52 45 53 hhcurveto
          51 30 -38 -83 44 callgsubr
          endchar
        </CharString>
        <CharString name="macron">
          -237 633 83 hstem
          360 633 -37 callgsubr
        </CharString>
        <CharString name="minus">
          -129 274 107 hstem
          465 274 rmoveto
          107 -403 -107 vlineto
          endchar
        </CharString>
        <CharString name="mu">
          8 55 callgsubr
          77 60 callsubr
          77 -65 callsubr
        </CharString>
        <CharString name="multiply">
          -179 110 -21 369 -20 hstem
          322 275 rmoveto
          98 99 -83 84 -99 -99 -98 98 -84 -83 98 -99 -102 -102 83 -84 103 103 103 -103 84 83 rlineto
          endchar
        </CharString>
        <CharString name="n">
          -8 callsubr
          -45 callsubr
          hintmask 11010100
          548 327 rmoveto
          -57 callsubr
          hintmask 10110100
          -24 callsubr
          hintmask 11001100
          -81 callgsubr
          endchar
        </CharString>
        <CharString name="nacute">
          -8 callsubr
          226 -20 -45 callsubr
          hintmask 11011010
          444 730 -102 callsubr
          197 -258 rmoveto
          -57 callsubr
          hintmask 10111010
          -24 callsubr
          hintmask 11010110
          -81 callgsubr
          endchar
        </CharString>
        <CharString name="napostrophe">
          -8 callsubr
          226 -20 -45 callsubr
          hintmask 11011010
          155 55 callsubr
          486 -258 rmoveto
          -57 callsubr
          hintmask 10111010
          -24 callsubr
          hintmask 11010110
          -81 callgsubr
          endchar
        </CharString>
        <CharString name="ncaron">
          -8 callsubr
          29 64 133 -20 -45 callsubr
          hintmask 10111101
          162 698 -93 callgsubr
          316 -403 rmoveto
          -57 callsubr
          -24 callsubr
          hintmask 11001011
          -81 callgsubr
          endchar
        </CharString>
        <CharString name="ncommaaccent">
          -52 0 callgsubr
          68 -12 callgsubr
          -9 -20 -48 callgsubr
          46 113 60 134 hintmask 11101011
          314 -88 callgsubr
          295 540 rmoveto
          -57 callsubr
          hintmask 11011011
          -24 callsubr
          hintmask 11100111
          -81 callgsubr
          endchar
        </CharString>
        <CharString name="ndotaccent">
          -8 callsubr
          100 126 -48 callgsubr
          61 121 37 134 hintmask 11011011
          377 604 -90 callgsubr
          292 -277 rmoveto
          -57 callsubr
          hintmask 10111011
          -24 callsubr
          hintmask 11010111
          -81 callgsubr
          endchar
        </CharString>
        <CharString name="nine">
          -67 -154 116 125 107 264 113 hstem
          32 128 268 125 vstem
          32 324 rmoveto
          -134 107 -103 140 67 55 30 48 27 vhcurveto
          -128 -2 -57 -75 -89 hhcurveto
          -59 -54 30 50 -32 hvcurveto
          -77 -84 rlineto
          -72 52 79 -40 89 hhcurveto
          168 107 140 259 205 -101 121 -161 -147 -112 -109 -138 hvcurveto
          259 134 rmoveto
          71 60 -62 -72 -72 -59 -58 -72 -72 -59 58 72 73 60 61 71 hvcurveto
          endchar
        </CharString>
        <CharString name="nine.denominator">
          -231 -5 75 67 70 145 73 hstem
          29 76 211 74 vstem
          29 278 rmoveto
          -80 74 -61 101 44 48 16 25 20 vhcurveto
          -69 -1 -46 -39 -67 hhcurveto
          -45 -41 16 28 -20 hvcurveto
          -47 -55 rlineto
          -42 33 56 -22 34 callsubr
          -65 -82 hvcurveto
          179 74 rmoveto
          56 48 -35 72 callgsubr
          35 57 hvcurveto
          endchar
        </CharString>
        <CharString name="nine.lnum">
          -49 -10 117 125 107 264 112 hstem
          40 129 268 124 vstem
          40 468 rmoveto
          -133 108 -103 140 66 55 30 48 28 vhcurveto
          -129 -2 -58 -74 -89 hhcurveto
          -59 -53 30 50 -32 hvcurveto
          -77 -84 rlineto
          -72 52 78 -41 89 hhcurveto
          168 107 141 259 205 -101 120 -160 -147 -113 -108 -139 hvcurveto
          259 135 rmoveto
          71 61 -62 -73 -71 -59 -58 -72 -72 -59 58 72 72 59 62 71 hvcurveto
          endchar
        </CharString>
        <CharString name="nine.numerator">
          -233 299 75 69 69 145 73 hstem
          28 76 207 78 vstem
          28 583 rmoveto
          -79 74 -61 102 43 48 15 25 21 vhcurveto
          -68 -2 -45 -41 -68 hhcurveto
          -45 -40 17 28 -21 hvcurveto
          -47 -55 rlineto
          -41 33 56 -24 61 hhcurveto
          118 73 84 150 124 -71 73 -109 -103 -78 -65 -82 hvcurveto
          179 74 rmoveto
          57 47 -34 -40 -39 -46 -32 -57 -57 -47 32 39 40 47 34 56 hvcurveto
          endchar
        </CharString>
        <CharString name="nineinferior">
          -231 -90 75 68 70 144 73 hstem
          29 76 211 74 vstem
          29 194 rmoveto
          -80 74 -61 101 44 48 15 26 20 vhcurveto
          -69 -1 -46 -40 -67 hhcurveto
          -45 -41 17 28 -20 hvcurveto
          -47 -55 rlineto
          -42 33 56 -23 34 callsubr
          -64 -82 hvcurveto
          179 73 rmoveto
          56 48 -34 72 callgsubr
          34 57 hvcurveto
          endchar
        </CharString>
        <CharString name="ninesuperior">
          -233 384 75 68 70 144 74 hstem
          28 76 207 78 vstem
          28 667 rmoveto
          -79 74 -61 102 43 48 15 26 21 vhcurveto
          -69 -2 -45 -40 -68 hhcurveto
          -45 -40 17 27 -21 hvcurveto
          -47 -54 rlineto
          -42 33 56 -23 61 hhcurveto
          118 73 83 150 125 -71 73 -109 -103 -78 -65 -83 hvcurveto
          179 74 rmoveto
          57 47 -34 -40 -38 -46 -32 -57 -57 -47 32 39 39 47 34 56 hvcurveto
          endchar
        </CharString>
        <CharString name="notequal">
          -192 47 -21 122 87 82 87 125 -20 hstem
          75 317 rmoveto
          145 hlineto
          -42 -82 rlineto
          -103 -87 59 hlineto
          -48 -96 50 -26 62 122 rlineto
          190 87 -146 hlineto
          42 82 rlineto
          104 87 -60 hlineto
          50 98 -51 27 -63 -125 rlineto
          -189 hlineto
          endchar
        </CharString>
        <CharString name="ntilde">
          -8 callsubr
          98 78 -33 80 3 -20 -45 callsubr
          hintmask 1101011010000000
          548 327 rmoveto
          -57 callsubr
          hintmask 1011011010000000
          -24 callsubr
          hintmask 1101010110000000
          -81 callgsubr
          -169 34 callgsubr
          hintmask 1100101010000000
          -93 callsubr
          hintmask 1101011010000000
          -52 callsubr
        </CharString>
        <CharString name="numbersign">
          65 21 -21 187 100 137 94 192 -20 hstem
          685 518 rmoveto
          -122 hlineto
          47 192 rlineto
          -108 hlineto
          -46 -192 rlineto
          -120 hlineto
          48 192 rlineto
          -108 hlineto
          -47 -192 rlineto
          -145 -94 122 hlineto
          -33 -137 rlineto
          -136 -100 112 hlineto
          -46 -187 rlineto
          108 hlineto
          45 187 rlineto
          120 hlineto
          -47 -187 rlineto
          108 hlineto
          46 187 rlineto
          155 100 -131 hlineto
          32 137 rlineto
          146 hlineto
          -405 -137 rmoveto
          33 137 rlineto
          119 hlineto
          -32 -137 rlineto
          endchar
        </CharString>
        <CharString name="o">
          -50 -70 callsubr
          39 callgsubr
          -78 callsubr
          endchar
        </CharString>
        <CharString name="oacute">
          -63 callgsubr
          430 730 -102 callsubr
          -34 -595 rmoveto
          -106 callsubr
          endchar
        </CharString>
        <CharString name="obreve">
          -50 -70 callsubr
          63 -17 callgsubr
          -20 callsubr
          hintmask 11101100
          -78 callsubr
          136 395 rmoveto
          hintmask 11011100
          -91 callsubr
          hintmask 11101100
          -56 callgsubr
        </CharString>
        <CharString name="ocircumflex">
          -63 callgsubr
          218 597 -100 callsubr
          155 -639 rmoveto
          -106 callsubr
          endchar
        </CharString>
        <CharString name="odblgrave">
          -63 callgsubr
          368 585 -95 callsubr
          181 -740 rmoveto
          -106 callsubr
          endchar
        </CharString>
        <CharString name="odieresis">
          -50 -70 callsubr
          71 119 hstemhm
          28 138 -15 -26 callgsubr
          -14 137 hintmask 11101100
          262 604 -99 callsubr
          -40 -614 rmoveto
          hintmask 11110010
          -106 callsubr
          endchar
        </CharString>
        <CharString name="odotbelow">
          -50 -29 callsubr
          60 -69 callgsubr
          hstem
          28 138 77 121 76 -4 callgsubr
          364 -31 callgsubr
          60 186 rmoveto
          -106 callsubr
          endchar
        </CharString>
        <CharString name="oe">
          355 -10 95 -95 114 115 83 117 114 -97 97 hstemhm
          9 callsubr
          143 hintmask 10110110
          301 -10 rmoveto
          83 64 39 79 61 hvcurveto
          -77 60 68 -41 84 hhcurveto
          107 95 53 84 40 hvcurveto
          -111 32 rlineto
          -43 -17 -53 -31 -56 hhcurveto
          -76 -62 58 76 -5 hvcurveto
          404 hlineto
          2 11 1 18 14 vvcurveto
          161 -5 -111 110 -156 hhcurveto
          -91 -69 -41 -81 -50 hvcurveto
          78 -46 -71 44 -90 hhcurveto
          -157 -116 -115 -157 -156 116 -115 157 hvcurveto
          hintmask 01110110
          2 114 rmoveto
          -79 -58 66 90 91 59 68 78 79 58 -67 -91 -90 -58 -67 -79 hvcurveto
          276 198 rmoveto
          hintmask 10101110
          79 5 56 55 74 hhcurveto
          73 59 -54 -80 7 hvcurveto
          endchar
        </CharString>
        <CharString name="ogonek">
          -366 -175 -21 217 -20 hstem
          65 81 vstem
          180 64 callsubr
          26 25 28 52 31 vhcurveto
          -39 21 rlineto
          -80 -40 -39 -46 -44 -43 callgsubr
          endchar
        </CharString>
        <CharString name="ograve">
          -63 callgsubr
          -78 callsubr
          103 324 -85 callgsubr
        </CharString>
        <CharString name="ohungarumlaut">
          -63 callgsubr
          326 730 -68 callsubr
          -97 -595 rmoveto
          -106 callsubr
          endchar
        </CharString>
        <CharString name="oinvertedbreve">
          -50 -70 callsubr
          63 -13 callsubr
          -20 callsubr
          hintmask 11011100
          302 670 rmoveto
          hintmask 11101100
          -92 callsubr
          hintmask 11011100
          -23 callsubr
          1 -680 rmoveto
          -106 callsubr
          endchar
        </CharString>
        <CharString name="omacron">
          -50 -70 callsubr
          100 83 39 callgsubr
          454 633 rmoveto
          83 -300 -83 vlineto
          149 -643 rmoveto
          -106 callsubr
          endchar
        </CharString>
        <CharString name="one">
          -162 0 60 callgsubr
          125 95 -20 hstem
          206 -4 callgsubr
          343 121 rmoveto
          450 -137 vlineto
          -23 -12 -101 -72 -49 hhcurveto
          -125 vlineto
          51 87 42 31 24 hvcurveto
          -303 -142 -121 406 121 vlineto
          endchar
        </CharString>
        <CharString name="one.denominator">
          -323 0 78 347 71 callgsubr
          78 rmoveto
          347 -80 vlineto
          hintmask 11100000
          -2 -1 -63 -55 -49 hhcurveto
          -79 vlineto
          38 59 32 19 67 callsubr
        </CharString>
        <CharString name="one.lnum">
          -166 0 121 376 124 96 -20 hstem
          204 -4 callgsubr
          341 121 rmoveto
          596 -137 vlineto
          -4 -2 -88 -92 -71 hhcurveto
          -124 vlineto
          54 85 55 31 22 hvcurveto
          -462 -138 -121 402 121 vlineto
          endchar
        </CharString>
        <CharString name="one.numerator">
          -358 306 78 347 -20 hstemhm
          32 -20 callgsubr
          hintmask 11001000
          207 384 rmoveto
          347 -81 vlineto
          hintmask 11100000
          7 callgsubr
          hintmask 11001000
          -21 callsubr
          hintmask 11010000
          44 callsubr
          endchar
        </CharString>
        <CharString name="oneeighth">
          298 42 callgsubr
          51 78 -39 76 310 -20 hstemhm
          43 -20 callgsubr
          346 -32 callgsubr
          hintmask 0111011001010000
          209 -7 -91 callgsubr
          70 69 callgsubr
          hintmask 1011010011010000
          -81 hlineto
          hintmask 1011011001010000
          7 callgsubr
          hintmask 1011010011010000
          -21 callsubr
          hintmask 1011010101010000
          44 callsubr
          hintmask 1011011001001000
          632 -261 23 callsubr
          hintmask 1010111000110000
          -64 callsubr
          hintmask 1011011001001000
          -81 callsubr
          hintmask 1010111000110000
          -67 callgsubr
          endchar
        </CharString>
        <CharString name="onehalf">
          300 0 78 -64 -21 313 78 -35 77 305 -20 hstemhm
          41 -20 callgsubr
          611 88 hintmask 1001110010000000
          916 hmoveto
          78 -235 vlineto
          5 31 33 30 67 21 rrcurveto
          52 16 77 31 86 vvcurveto
          83 -55 50 -105 -98 -64 -42 -27 -21 vhcurveto
          50 -58 rlineto
          23 66 callgsubr
          -60 -25 hvcurveto
          -96 69 callsubr
          hintmask 0110110010000000
          -371 -7 -91 callgsubr
          79 69 callgsubr
          hintmask 1010100110000000
          -81 hlineto
          hintmask 1010110010000000
          7 callgsubr
          hintmask 1010100110000000
          -21 callsubr
          hintmask 1010101010000000
          44 callsubr
          endchar
        </CharString>
        <CharString name="oneinferior">
          -324 -85 78 348 71 callgsubr
          -7 rmoveto
          348 -80 vlineto
          hintmask 11100000
          -3 -1 -63 -54 -49 hhcurveto
          -80 vlineto
          38 59 33 18 67 callsubr
        </CharString>
        <CharString name="onequarter">
          275 14 -21 28 -21 93 78 135 78 347 -20 hstemhm
          42 -20 callgsubr
          542 76 hintmask 0111110010000000
          835 hmoveto
          -10 callsubr
          21 callgsubr
          hintmask 1011110010000000
          -374 -178 -91 callgsubr
          40 69 callgsubr
          hintmask 0111100110000000
          -81 hlineto
          hintmask 0111110010000000
          7 callgsubr
          hintmask 0111100110000000
          -21 callsubr
          hintmask 0111101010000000
          44 callsubr
          endchar
        </CharString>
        <CharString name="onesuperior">
          -358 390 79 347 -20 hstemhm
          32 -20 callgsubr
          hintmask 11001000
          207 469 rmoveto
          347 -81 vlineto
          hintmask 11100000
          -3 -1 -51 -55 -42 hhcurveto
          -79 vlineto
          hintmask 11001000
          -21 callsubr
          hintmask 11010000
          -78 -79 229 79 hlineto
          endchar
        </CharString>
        <CharString name="onethird">
          302 -5 79 -60 -21 189 72 52 78 -31 74 304 -20 hstemhm
          43 -20 callgsubr
          610 95 -81 81 hintmask 0111011001000000
          196 -7 -91 callgsubr
          83 69 callgsubr
          hintmask 1011010011000000
          -81 hlineto
          hintmask 1011011001000000
          7 callgsubr
          hintmask 1011010011000000
          -21 callsubr
          hintmask 1011010101000000
          44 callsubr
          hintmask 1011011001000000
          454 -389 rmoveto
          92 89 37 82 54 -40 45 3 callgsubr
          48 vvcurveto
          hintmask 1010111001000000
          76 callgsubr
          -39 -30 vhcurveto
          51 -63 rlineto
          29 33 callgsubr
          hintmask 1011011001000000
          32 callsubr
          -72 24 hlineto
          hintmask 1011011000100000
          -36 callsubr
        </CharString>
        <CharString name="oogonek">
          -50 -178 -21 190 84 callsubr
          46 81 147 -4 callgsubr
          327 -199 rmoveto
          -61 callsubr
          26 25 28 52 31 vhcurveto
          130 28 77 112 124 vvcurveto
          146 -104 126 -170 -170 -105 -126 -146 -139 96 -122 159 -9 vhcurveto
          -48 -33 -23 -36 -34 -43 callgsubr
          -161 460 rmoveto
          91 60 67 77 77 60 -66 -91 -92 -60 -66 -77 -77 -60 65 92 vhcurveto
          endchar
        </CharString>
        <CharString name="ordfeminine">
          -212 341 70 -51 -21 176 57 73 68 hstemhm
          40 92 141 98 hintmask 01111100
          160 339 rmoveto
          50 46 23 42 32 hvcurveto
          2 -19 rlineto
          hintmask 10111100
          -28 5 20 -16 37 hhcurveto
          12 15 1 3 17 hvcurveto
          85 vlineto
          -19 1 -6 8 20 vvcurveto
          104 vlineto
          98 -61 52 -103 -54 -48 -15 -32 -47 vhcurveto
          30 -61 rlineto
          26 38 34 14 38 hhcurveto
          50 25 -26 -44 hvcurveto
          -19 vlineto
          10 -22 -30 6 -31 hhcurveto
          -88 -62 -49 -70 hvcurveto
          hintmask 01111100
          -65 52 -49 68 vhcurveto
          hintmask 10111100
          29 72 rmoveto
          -32 -25 22 29 32 31 21 44 21 25 -4 -8 20 hvcurveto
          -39 vlineto
          -8 -5 -10 -9 -8 vhcurveto
          -16 -15 -28 -11 -27 hhcurveto
          endchar
        </CharString>
        <CharString name="ordmasculine">
          -213 339 84 205 85 hstem
          36 99 173 100 vstem
          222 339 rmoveto
          117 69 88 99 35 callgsubr
          hvcurveto
          12 callsubr
        </CharString>
        <CharString name="oslash">
          -50 -10 114 -87 -21 423 114 -5 -20 hstemhm
          -20 callsubr
          hintmask 01101100
          126 -4 rmoveto
          28 33 rlineto
          hintmask 10011100
          1 callgsubr
          hintmask 01101100
          14 callgsubr
          hintmask 10101100
          -46 callgsubr
          endchar
        </CharString>
        <CharString name="oslashacute">
          -50 -10 114 -87 -21 423 114 -5 -20 222 -20 hstemhm
          -20 callsubr
          hintmask 01101110
          126 -4 rmoveto
          28 33 rlineto
          hintmask 10011110
          1 callgsubr
          hintmask 01101110
          14 callgsubr
          hintmask 10101110
          -46 callgsubr
          264 469 -38 callsubr
        </CharString>
        <CharString name="otilde">
          -50 -70 callsubr
          69 -33 callgsubr
          -20 callsubr
          hintmask 11101110
          -78 callsubr
          200 341 -88 callsubr
          hintmask 11010110
          -93 callsubr
          hintmask 11101110
          -52 callsubr
        </CharString>
        <CharString name="p">
          -22 50 callgsubr
          61 31 callgsubr
          hintmask 11101010
          375 -62 callgsubr
        </CharString>
        <CharString name="paragraph">
          1 -59 -21 690 100 hstem
          35 112 116 114 51 113 vstem
          35 456 rmoveto
          -149 90 -98 138 -1 vhcurveto
          -288 114 288 51 -288 113 690 70 100 -294 vlineto
          -179 -103 -93 -161 hvcurveto
          112 3 rmoveto
          88 42 59 74 4 vhcurveto
          -302 vlineto
          -64 6 -52 53 92 vvcurveto
          281 -151 rmoveto
          -51 302 51 hlineto
          endchar
        </CharString>
        <CharString name="parenleft">
          -346 -32 -21 810 -20 hstem
          34 125 vstem
          34 347 rmoveto
          -135 67 -141 83 -124 vhcurveto
          98 49 rlineto
          -72 123 -51 118 107 vvcurveto
          137 84 169 42 64 vhcurveto
          -102 43 rlineto
          -83 -141 -66 -134 -135 vvcurveto
          endchar
        </CharString>
        <CharString name="parenright">
          -347 -32 -21 810 -20 hstem
          150 125 vstem
          275 347 rmoveto
          135 -65 134 -83 141 vhcurveto
          -103 -43 rlineto
          42 -64 84 -169 -137 vvcurveto
          -107 -50 -118 -73 -123 vhcurveto
          98 -49 rlineto
          83 124 67 141 135 vvcurveto
          endchar
        </CharString>
        <CharString name="partialdiff">
          -83 -10 104 242 102 166 111 hstemhm
          19 128 242 142 -123 123 hintmask 11110100
          250 -10 rmoveto
          170 111 145 255 220 -84 105 -152 -78 -73 -27 -47 -50 hvcurveto
          74 -78 rlineto
          25 25 49 16 42 hhcurveto
          80 44 -55 -143 hvcurveto
          -11 -1 -12 -12 vvcurveto
          42 -22 -48 25 -62 hhcurveto
          -134 -122 -107 -131 -119 97 -91 134 hvcurveto
          8 104 rmoveto
          -62 -49 50 63 71 61 58 70 hvcurveto
          hintmask 11111000
          62 49 -47 -62 -71 -63 -62 -68 hvcurveto
          endchar
        </CharString>
        <CharString name="percent">
          130 61 callsubr
          35 94 142 94 56 94 142 94 vstem
          200 417 rmoveto
          92 73 67 85 84 -73 67 -92 -92 -73 -67 -84 -85 73 -67 92 hvcurveto
          67 vmoveto
          -39 -32 38 47 45 32 39 39 38 33 -38 -46 -46 -32 -39 -39 hvcurveto
          386 -494 rmoveto
          93 72 67 84 85 -72 67 -93 20 callsubr
          -38 -33 -2 callsubr
          -434 -64 -27 callgsubr
        </CharString>
        <CharString name="period">
          -431 0 144 hstem
          58 110 vstem
          168 hmoveto
          23 callgsubr
          endchar
        </CharString>
        <CharString name="periodcentered">
          10 callsubr
        </CharString>
        <CharString name="perthousand">
          513 61 callsubr
          40 94 142 93 57 94 142 94 51 94 142 94 vstem
          205 417 rmoveto
          92 72 67 85 84 -72 67 -92 -92 -73 -67 -84 -85 73 -67 92 hvcurveto
          67 vmoveto
          -38 -33 38 47 45 31 39 40 38 33 -38 -46 -46 -32 -39 -39 hvcurveto
          386 -494 rmoveto
          92 73 67 84 85 -73 67 -92 20 callsubr
          -39 -32 -2 callsubr
          381 -67 rmoveto
          92 73 67 84 85 -73 67 -92 20 callsubr
          -38 -33 -2 callsubr
          -815 -64 -27 callgsubr
        </CharString>
        <CharString name="pi">
          -14 -8 115 -86 -21 406 116 hstemhm
          101 132 131 133 hintmask 10111000
          364 406 rmoveto
          -285 vlineto
          -82 49 -47 81 40 52 10 17 37 vhcurveto
          -19 102 rlineto
          -8 -16 -21 -6 -16 hhcurveto
          -35 -19 22 39 hvcurveto
          238 96 116 -567 -116 75 vlineto
          hintmask 01111000
          -406 132 406 vlineto
          endchar
        </CharString>
        <CharString name="plus">
          -235 209 -21 113 108 113 -20 hstem
          150 121 vstem
          271 409 rmoveto
          113 -121 -113 -103 -108 103 -113 121 113 103 108 vlineto
          endchar
        </CharString>
        <CharString name="plusminus">
          -184 28 108 187 107 127 -20 hstem
          176 120 vstem
          413 28 rmoveto
          108 -354 -108 vlineto
          237 402 rmoveto
          127 -120 -127 -117 -107 117 -127 120 127 117 107 vlineto
          endchar
        </CharString>
        <CharString name="product">
          68 -69 -21 684 116 hstem
          112 130 240 131 vstem
          482 -90 rmoveto
          131 684 80 116 -661 -116 80 -684 130 684 240 hlineto
          endchar
        </CharString>
        <CharString name="q">
          -22 -191 -21 202 114 28 callsubr
          hstemhm
          30 137 272 134 -134 170 -153 117 hintmask 11101100
          84 callgsubr
          -213 vlineto
          -53 45 -38 52 vhcurveto
          hintmask 11101010
          21 29 2 4 23 hvcurveto
          114 vlineto
          hintmask 11011100
          -26 1 -10 10 29 vvcurveto
          576 vlineto
          hintmask 11011001
          -49 callsubr
        </CharString>
        <CharString name="q.alt">
          -22 50 callgsubr
          30 137 272 28 callgsubr
          hintmask 11011100
          84 callgsubr
          -305 134 737 vlineto
          hintmask 11011010
          -49 callsubr
        </CharString>
        <CharString name="question">
          -170 0 138 472 109 hstem
          124 111 99 117 vstem
          232 233 rmoveto
          68 61 20 53 33 vhcurveto
          63 39 42 44 85 vvcurveto
          139 -107 58 -101 -91 -83 -47 -82 -35 vhcurveto
          87 -60 rlineto
          36 22 38 44 58 hhcurveto
          49 46 -31 -55 -75 -90 -36 -40 -24 hvcurveto
          -67 -39 -15 -52 -65 vvcurveto
          113 -233 rmoveto
          138 -111 -138 vlineto
          endchar
        </CharString>
        <CharString name="questiondown">
          -177 -213 109 472 138 hstem
          31 117 99 111 vstem
          250 273 rmoveto
          -68 -61 -20 -53 -33 vhcurveto
          -63 -39 -42 -44 -85 vvcurveto
          -139 107 -58 101 91 83 47 82 35 vhcurveto
          -87 60 rlineto
          -36 -22 -38 -44 -58 hhcurveto
          -49 -46 31 55 75 90 36 40 24 hvcurveto
          67 39 15 52 65 vvcurveto
          -113 233 rmoveto
          -138 111 138 vlineto
          endchar
        </CharString>
        <CharString name="quotedbl">
          -263 499 224 hstem
          61 114 43 36 callgsubr
          271 hmoveto
          224 -114 -224 vlineto
          endchar
        </CharString>
        <CharString name="quotedblbase">
          -224 -110 -21 131 146 hstem
          58 134 48 135 vstem
          157 -131 rmoveto
          35 129 rlineto
          148 -134 -146 40 vlineto
          -23 -131 rlineto
          264 hmoveto
          36 129 rlineto
          148 -135 -146 40 vlineto
          -22 -131 rlineto
          endchar
        </CharString>
        <CharString name="quotedblleft">
          -222 473 135 122 -20 hstem
          56 135 53 135 vstem
          92 730 rmoveto
          -9 callgsubr
          107 hmoveto
          -9 callgsubr
          endchar
        </CharString>
        <CharString name="quotedblright">
          -231 500 -21 122 135 hstem
          52 135 53 135 vstem
          151 479 rmoveto
          -9 callsubr
          269 hmoveto
          -9 callsubr
          endchar
        </CharString>
        <CharString name="quoteleft">
          -410 494 -21 257 -20 hstem
          56 135 vstem
          92 730 rmoveto
          -9 callgsubr
          endchar
        </CharString>
        <CharString name="quoteright">
          -419 500 -21 257 -20 hstem
          52 135 vstem
          151 479 rmoveto
          -9 callsubr
          endchar
        </CharString>
        <CharString name="quotesinglbase">
          -406 -110 -21 152 -21 146 -20 hstem
          58 -5 callsubr
          157 -131 rmoveto
          35 129 rlineto
          148 -134 -146 40 vlineto
          -23 -131 rlineto
          endchar
        </CharString>
        <CharString name="quotesingle">
          -421 499 224 hstem
          61 36 callgsubr
          endchar
        </CharString>
        <CharString name="r">
          6 callgsubr
          80 callgsubr
          hintmask 10110000
          373 530 rmoveto
          -56 callsubr
          hintmask 11010000
          -74 callgsubr
          endchar
        </CharString>
        <CharString name="racute">
          6 callgsubr
          219 -20 80 callgsubr
          hintmask 10111000
          360 730 -102 callsubr
          106 -55 rmoveto
          -56 callsubr
          hintmask 11011000
          -74 callgsubr
          endchar
        </CharString>
        <CharString name="radical">
          -118 21 -21 285 94 411 -20 hstem
          8 285 rmoveto
          102 hlineto
          82 -285 rlineto
          161 hlineto
          152 790 rlineto
          -120 hlineto
          -112 -690 -67 279 rlineto
          -198 hlineto
          endchar
        </CharString>
        <CharString name="rcaron">
          -269 21 46 callgsubr
          0 73 -66 -20 219 -20 80 callgsubr
          hintmask 10101100
          78 698 -93 callgsubr
          225 -200 rmoveto
          hintmask 10011100
          -56 callsubr
          hintmask 11001100
          -74 callgsubr
          endchar
        </CharString>
        <CharString name="rcommaaccent">
          -269 0 callgsubr
          68 41 callsubr
          80 callgsubr
          hintmask 11011000
          136 -88 callgsubr
          298 743 rmoveto
          -56 callsubr
          hintmask 11101000
          -74 callgsubr
          endchar
        </CharString>
        <CharString name="rdblgrave">
          6 callgsubr
          219 -20 80 callgsubr
          hintmask 10111000
          288 585 -95 callsubr
          331 -200 rmoveto
          -56 callsubr
          hintmask 11011000
          -74 callgsubr
          endchar
        </CharString>
        <CharString name="rdotbelow">
          -269 -196 126 91 41 callsubr
          80 callgsubr
          hintmask 11011000
          373 530 rmoveto
          -56 callsubr
          hintmask 11101000
          -74 callgsubr
          -184 -604 -90 callgsubr
          endchar
        </CharString>
        <CharString name="registered">
          185 -7 49 94 230 -82 82 126 84 89 50 hstemhm
          43 56 158 95 146 94 150 56 hintmask 1101111110000000
          419 -7 rmoveto
          217 66 callsubr
          -217 -217 67 callgsubr
          217 hvcurveto
          49 vmoveto
          -186 -134 137 176 174 134 136 186 186 137 -136 -176 -182 -141 -129 -182 hvcurveto
          -162 94 rmoveto
          95 hlineto
          hintmask 1011111110000000
          148 64 vlineto
          hintmask 1101111110000000
          92 -148 rlineto
          107 hlineto
          -103 166 rlineto
          48 19 32 53 55 vvcurveto
          71 -59 76 -81 vhcurveto
          -195 hlineto
          95 -210 rmoveto
          126 90 vlineto
          30 26 -21 -42 -40 -21 -23 -33 hvcurveto
          endchar
        </CharString>
        <CharString name="ring">
          -394 576 41 72 41 hstem
          34 57 81 56 vstem
          34 653 -84 callsubr
          endchar
        </CharString>
        <CharString name="rinvertedbreve">
          6 callgsubr
          85 -13 callsubr
          61 134 hintmask 11001100
          215 670 rmoveto
          hintmask 11010100
          -92 callsubr
          hintmask 10101100
          -23 callsubr
          158 -140 rmoveto
          -56 callsubr
          hintmask 11010100
          -74 callgsubr
          endchar
        </CharString>
        <CharString name="s">
          24 callgsubr
          hstem
          76 callsubr
          vstem
          259 -10 -103 callsubr
          endchar
        </CharString>
        <CharString name="s_t">
          209 -10 96 -96 124 -102 -21 430 113 -95 95 -10 -20 174 60 hstemhm
          40 119 183 57 -57 128 102 134 hintmask 0101001110100000
          830 133 rmoveto
          -7 -17 -29 -12 -26 hhcurveto
          -30 88 callsubr
          256 110 vlineto
          hintmask 1000011101100000
          103 -110 vlineto
          138 -13 76 -166 -133 -52 -65 -79 -38 10 -25 15 -29 vhcurveto
          hintmask 1000101101100000
          25 -39 -56 7 -35 hhcurveto
          -99 -98 -61 -113 -91 66 -28 121 -28 hvcurveto
          65 -15 55 -5 -49 vvcurveto
          -42 -42 -16 -48 -58 -63 22 42 -64 vhcurveto
          -51 -91 rlineto
          -39 57 98 -30 85 hhcurveto
          117 92 56 112 95 -70 34 -130 24 hvcurveto
          -59 11 -52 10 48 vvcurveto
          44 40 15 47 42 49 -13 -39 56 vhcurveto
          53 84 rlineto
          hintmask 1000011110100000
          -17 18 -30 50 51 vvcurveto
          49 29 39 66 66 12 -38 -116 vhcurveto
          -68 hlineto
          hintmask 0011001110100000
          -103 68 -301 vlineto
          -93 62 -36 75 54 57 20 16 36 vhcurveto
          endchar
        </CharString>
        <CharString name="sacute">
          19 callgsubr
          373 730 -102 callsubr
          -21 -595 -103 callsubr
          endchar
        </CharString>
        <CharString name="scaron">
          24 callgsubr
          0 63 81 callgsubr
          76 callsubr
          hintmask 10111100
          91 698 -93 callgsubr
          98 -740 rmoveto
          130 82 64 102 -7 callgsubr
          hvcurveto
          -6 callgsubr
          hintmask 11011100
          41 35 18 45 49 50 -18 -40 53 vhcurveto
          54 81 rlineto
          50 -57 -70 22 -78 hhcurveto
          -117 -89 -66 -107 -80 50 -29 137 -37 hvcurveto
          82 -22 33 -12 -37 vvcurveto
          -37 -33 -21 -53 -60 -61 24 45 -63 vhcurveto
          -50 -84 rlineto
          -52 59 91 -29 87 hhcurveto
          endchar
        </CharString>
        <CharString name="schwa">
          -57 -10 97 134 83 131 98 hstem
          21 139 vstem
          297 -10 rmoveto
          170 104 125 148 146 -107 124 -169 -116 -89 -57 -80 -38 hvcurveto
          114 -32 rlineto
          43 17 54 28 54 hhcurveto
          69 62 -49 -82 7 hvcurveto
          -405 hlineto
          -1 -11 -2 -18 -14 vvcurveto
          -146 1 104 -125 171 hhcurveto
          1 97 rmoveto
          -72 -60 54 80 -6 hvcurveto
          272 hlineto
          -79 -7 -54 -55 -73 hhcurveto
          endchar
        </CharString>
        <CharString name="scircumflex">
          19 callgsubr
          161 597 -100 callsubr
          168 -639 -103 callsubr
          endchar
        </CharString>
        <CharString name="sdotbelow">
          -159 -29 callsubr
          60 96 353 95 hstem
          40 125 23 121 33 129 vstem
          259 -10 -103 callsubr
          50 -186 -90 callgsubr
          endchar
        </CharString>
        <CharString name="section">
          -124 -88 127 318 108 131 119 hstemhm
          43 135 -113 130 157 125 -125 139 hintmask 11110100
          456 215 rmoveto
          10 13 11 31 38 vvcurveto
          124 -116 41 -99 3 vhcurveto
          -47 1 -37 12 49 vvcurveto
          42 36 27 48 45 38 -19 -34 18 vhcurveto
          103 49 rlineto
          49 -34 -62 74 -116 hhcurveto
          -116 -95 -87 -103 -52 22 -40 19 -18 hvcurveto
          hintmask 11101010
          -7 -13 -12 -23 -38 vvcurveto
          -102 75 -67 132 -9 vhcurveto
          37 -2 43 -6 -47 vvcurveto
          -44 -44 -25 -45 -44 -40 17 42 -40 vhcurveto
          -86 -82 rlineto
          -38 33 77 -66 106 hhcurveto
          92 130 56 145 50 -14 33 -21 19 hvcurveto
          -261 108 rmoveto
          17 7 17 9 9 vhcurveto
          -4 11 23 -5 22 hhcurveto
          35 48 -15 -49 -16 -7 -19 -11 -10 hvcurveto
          -42 16 -95 -19 78 vvcurveto
          endchar
        </CharString>
        <CharString name="semicolon">
          -397 -94 -21 489 144 hstem
          72 110 vstem
          182 374 rmoveto
          23 callgsubr
          75 -489 rmoveto
          41 119 rlineto
          140 -117 86 callsubr
        </CharString>
        <CharString name="servicemark">
          134 411 64 -47 -21 241 62 5 -20 hstemhm
          55 81 94 83 40 87 200 87 hintmask 10101111
          539 553 rmoveto
          65 callgsubr
          65 -145 rlineto
          70 hlineto
          65 72 callsubr
          -297 -28 rmoveto
          hintmask 10011111
          21 -38 -41 12 -43 hhcurveto
          -71 -53 -37 -59 -51 33 -21 76 -19 hvcurveto
          51 -12 15 -7 -15 vvcurveto
          -12 -15 -7 -29 -39 -40 16 19 -29 vhcurveto
          -35 -64 rlineto
          hintmask 01101111
          -24 38 55 -15 51 hhcurveto
          75 51 31 60 55 -36 25 -81 15 hvcurveto
          -50 9 -10 11 14 vvcurveto
          13 15 8 28 32 31 -13 -17 27 vhcurveto
          endchar
        </CharString>
        <CharString name="seven">
          -95 -106 -21 588 122 hstem
          58 -127 rmoveto
          152 hlineto
          352 710 rlineto
          -534 -122 323 hlineto
          endchar
        </CharString>
        <CharString name="seven.denominator">
          -268 21 -21 342 80 hstem
          50 hmoveto
          90 hlineto
          248 422 rlineto
          -364 -80 239 hlineto
          endchar
        </CharString>
        <CharString name="seven.lnum">
          -93 21 -21 588 122 hstem
          63 hmoveto
          152 hlineto
          353 710 rlineto
          -534 -122 322 hlineto
          endchar
        </CharString>
        <CharString name="seven.numerator">
          -267 331 -21 341 79 hstem
          50 310 rmoveto
          90 hlineto
          248 420 22 callgsubr
        </CharString>
        <CharString name="seveneighths">
          272 42 callgsubr
          90 76 230 79 hstemhm
          537 -32 callgsubr
          hintmask 0111101010000000
          155 -7 -91 callgsubr
          799 76 23 callsubr
          hintmask 1011101100000000
          -64 callsubr
          hintmask 1011110010000000
          -81 callsubr
          hintmask 1011101100000000
          -67 callgsubr
          -567 10 rmoveto
          90 hlineto
          248 420 22 callgsubr
        </CharString>
        <CharString name="seveninferior">
          -267 -63 -21 342 79 hstem
          50 -84 rmoveto
          90 hlineto
          248 421 22 callgsubr
        </CharString>
        <CharString name="sevensuperior">
          -268 415 -21 342 79 hstem
          50 394 rmoveto
          90 hlineto
          248 421 22 callgsubr
        </CharString>
        <CharString name="six">
          -77 callgsubr
        </CharString>
        <CharString name="six.denominator">
          -232 -5 72 145 69 68 76 hstem
          34 78 208 76 vstem
          396 141 rmoveto
          79 -74 61 82 callgsubr
          39 68 hhcurveto
          44 41 -16 -28 21 hvcurveto
          46 55 rlineto
          42 -33 -55 23 -61 hhcurveto
          -117 -75 -84 -150 -125 71 -71 110 103 78 64 82 39 callsubr
          39 47 32 57 58 46 -32 -40 -39 -47 -34 -56 hvcurveto
          endchar
        </CharString>
        <CharString name="six.lnum">
          -77 callgsubr
        </CharString>
        <CharString name="six.numerator">
          -233 299 73 145 69 69 75 hstem
          34 77 209 75 vstem
          395 446 rmoveto
          79 -73 61 -103 -42 -49 -14 63 callsubr
          -28 20 hvcurveto
          46 56 rlineto
          41 -32 -56 23 -61 hhcurveto
          -117 -74 -84 -150 -124 71 -73 109 103 78 65 82 39 callsubr
          40 47 31 58 57 47 -31 -40 -40 -47 -34 -57 hvcurveto
          endchar
        </CharString>
        <CharString name="sixinferior">
          -232 -90 73 145 68 69 75 hstem
          34 78 208 76 vstem
          396 56 rmoveto
          80 -74 60 82 callgsubr
          40 68 hhcurveto
          44 41 -17 -27 21 hvcurveto
          46 55 rlineto
          42 -33 -55 22 -61 hhcurveto
          -117 -75 -83 -150 -125 71 -72 110 103 78 65 81 hvcurveto
          -179 -73 rmoveto
          -56 -49 33 40 40 47 32 57 58 46 -32 -40 -40 -47 -33 -56 hvcurveto
          endchar
        </CharString>
        <CharString name="sixsuperior">
          -233 384 73 145 69 68 76 hstem
          34 77 209 75 vstem
          395 531 rmoveto
          79 -73 61 -103 -42 -49 -15 63 callsubr
          -27 20 hvcurveto
          46 55 rlineto
          42 -32 -56 23 -61 hhcurveto
          -117 -74 -84 -151 -124 71 -72 109 103 78 64 83 39 callsubr
          39 47 32 58 57 47 -32 -40 -39 -47 -34 -57 hvcurveto
          endchar
        </CharString>
        <CharString name="slash">
          42 8 callsubr
          522 710 rmoveto
          -495 -710 rlineto
          148 hlineto
          496 710 rlineto
          endchar
        </CharString>
        <CharString name="space">
          -416 endchar
        </CharString>
        <CharString name="sterling">
          -111 -15 114 -85 85 -85 102 164 101 225 109 hstemhm
          76 120 -38 114 hintmask 01011010
          57 280 rmoveto
          101 hlineto
          -74 -36 -60 -71 -59 vhcurveto
          29 -95 rlineto
          13 43 50 9 35 hhcurveto
          hintmask 10011100
          64 60 -29 61 hhcurveto
          38 44 12 18 33 hvcurveto
          -33 100 rlineto
          -11 -30 -21 -5 -24 hhcurveto
          hintmask 00111010
          -45 -42 17 -49 hhcurveto
          -23 -24 -3 -9 -29 hvcurveto
          62 64 22 50 62 vvcurveto
          162 101 -184 hlineto
          hintmask 10011100
          -22 54 -32 43 46 vvcurveto
          47 35 35 49 49 57 -32 -46 33 vhcurveto
          70 82 rlineto
          65 -49 -77 40 -81 hhcurveto
          -115 -91 -79 -99 -56 29 -49 24 -51 hvcurveto
          -72 hlineto
          endchar
        </CharString>
        <CharString name="summation">
          -93 0 116 491 103 hstem
          519 710 rmoveto
          -480 -87 hlineto
          207 -267 -214 -265 rlineto
          -91 495 116 -342 4 vlineto
          197 249 -182 234 rlineto
          4 319 vlineto
          endchar
        </CharString>
        <CharString name="t">
          -272 -9 123 307 103 170 -20 hstem
          91 -5 callsubr
          348 133 rmoveto
          -7 -16 -29 -12 -28 hhcurveto
          -76 callsubr
        </CharString>
        <CharString name="t.alt">
          -277 21 -21 403 121 170 -20 hstem
          104 138 vstem
          242 hmoveto
          403 121 121 -121 170 -138 -170 -78 -121 78 -403 vlineto
          endchar
        </CharString>
        <CharString name="tbar">
          -271 -9 123 150 80 77 103 170 -20 hstem
          92 -5 callsubr
          349 133 rmoveto
          -7 -16 -29 -12 -28 hhcurveto
          -28 88 callsubr
          99 110 80 -110 77 110 103 -110 170 -134 -170 -69 -103 69 -77 -69 -80 69 -144 vlineto
          -93 62 -36 74 57 24 callsubr
        </CharString>
        <CharString name="tcaron">
          -272 -9 123 307 103 206 -20 hstem
          91 -5 callsubr
          450 730 -102 callsubr
          -9 -452 rmoveto
          -7 -16 -29 -12 -28 hhcurveto
          -76 callsubr
        </CharString>
        <CharString name="tdotbelow">
          -272 -29 callsubr
          61 123 31 callsubr
          -64 121 hintmask 11110100
          282 -31 callgsubr
          187 329 rmoveto
          -7 -16 -29 -12 -28 hhcurveto
          hintmask 11111000
          -76 callsubr
        </CharString>
        <CharString name="thorn">
          -55 -192 -21 189 121 321 121 171 -20 hstem
          61 137 239 -4 callgsubr
          574 256 rmoveto
          135 -99 148 -156 -69 -34 -31 -25 -18 vhcurveto
          227 -137 -923 137 240 vlineto
          -23 14 38 -28 61 hhcurveto
          144 118 132 148 1 hvcurveto
          -137 2 rmoveto
          -88 -55 -73 -75 -51 -58 42 37 vhcurveto
          160 vlineto
          46 24 35 36 54 hhcurveto
          78 48 -74 -86 hvcurveto
          endchar
        </CharString>
        <CharString name="three">
          -98 -147 122 206 100 179 116 hstemhm
          365 143 -127 127 hintmask 11110000
          381 236 rmoveto
          76 14 51 70 79 vvcurveto
          106 -93 71 -136 -104 -96 -41 -61 -41 vhcurveto
          84 -94 rlineto
          51 31 50 29 61 hhcurveto
          60 41 -27 -54 -57 -48 -41 -82 hvcurveto
          -31 -100 28 hlineto
          hintmask 11101000
          100 49 -39 -69 -66 -44 -32 -81 -71 -47 25 44 -34 hvcurveto
          -76 -95 rlineto
          -62 52 79 -34 101 hhcurveto
          159 101 80 125 93 -56 71 -83 14 hvcurveto
          endchar
        </CharString>
        <CharString name="three.denominator">
          -249 -5 79 108 72 99 74 4 callsubr
          -5 -40 callgsubr
          hintmask 11101000
          -36 callsubr
        </CharString>
        <CharString name="three.lnum">
          -71 -9 123 196 112 179 118 hstemhm
          382 143 -124 124 -124 139 hintmask 11100100
          273 -9 rmoveto
          133 134 65 135 89 -58 77 -91 16 hvcurveto
          hintmask 11110000
          82 18 52 54 79 vvcurveto
          110 -105 85 -143 -93 -100 -37 -65 -45 vhcurveto
          86 -97 rlineto
          38 21 51 43 81 hhcurveto
          47 57 -25 -59 -66 -79 -29 -107 hvcurveto
          -33 -112 33 hlineto
          hintmask 11101000
          128 77 -33 -68 -60 -60 -35 -70 -101 -51 68 36 -7 hvcurveto
          -71 -88 rlineto
          -89 32 85 -50 115 hhcurveto
          endchar
        </CharString>
        <CharString name="three.numerator">
          -249 298 81 107 73 98 74 4 callsubr
          -75 callgsubr
          hintmask 11101000
          -33 callsubr
          endchar
        </CharString>
        <CharString name="threeeighths">
          307 42 callgsubr
          43 81 -34 76 65 73 98 74 hstemhm
          290 95 -81 81 188 -32 callgsubr
          hintmask 1011011101010000
          204 -75 callgsubr
          hintmask 0111011011001000
          -33 callsubr
          37 -305 -91 callgsubr
          749 76 23 callsubr
          hintmask 1010111100110000
          -64 callsubr
          hintmask 1011011101001000
          -81 callsubr
          hintmask 1010111100110000
          -67 callgsubr
          endchar
        </CharString>
        <CharString name="threeinferior">
          -249 -90 80 108 72 99 73 4 callsubr
          -90 65 callsubr
          10 36 32 47 vvcurveto
          76 callgsubr
          -38 -30 vhcurveto
          51 -64 rlineto
          30 33 callgsubr
          39 46 -15 -32 -37 -54 -15 -81 hvcurveto
          -23 -72 24 hlineto
          hintmask 11101000
          92 56 -19 -38 -33 -46 -18 -56 -64 -41 31 26 -14 hvcurveto
          -43 -58 42 callsubr
          endchar
        </CharString>
        <CharString name="threequarters">
          283 14 -21 28 -21 93 78 127 81 107 73 98 74 hstemhm
          289 95 -81 81 382 76 hintmask 0111111010000000
          203 -75 callgsubr
          hintmask 0111110110000000
          -33 callsubr
          639 -298 rmoveto
          -10 callsubr
          21 callgsubr
          hintmask 1011111010000000
          -351 -178 -27 callgsubr
        </CharString>
        <CharString name="threesuperior">
          -249 383 80 107 73 99 74 4 callsubr
          383 65 callsubr
          11 36 31 47 vvcurveto
          66 -73 50 -98 -66 -67 -22 -38 -30 vhcurveto
          51 -64 rlineto
          30 33 callgsubr
          32 callsubr
          -73 24 hlineto
          hintmask 11101000
          92 56 -17 -38 -34 -46 -18 -56 -68 -41 35 23 -10 hvcurveto
          -43 -59 42 callsubr
          endchar
        </CharString>
        <CharString name="tilde">
          -219 602 78 -60 -21 48 33 -22 callgsubr
          hintmask 01101000
          284 34 callgsubr
          hintmask 01010000
          -93 callsubr
          hintmask 10001000
          -52 callsubr
        </CharString>
        <CharString name="trademark">
          173 432 -21 214 87 -2 -20 hstemhm
          157 87 141 87 199 87 hintmask 11011100
          339 712 rmoveto
          -277 -87 95 -214 87 214 95 hlineto
          232 -72 rmoveto
          hintmask 10111100
          65 callgsubr
          64 -145 rlineto
          71 hlineto
          64 72 callsubr
          endchar
        </CharString>
        <CharString name="two">
          -92 0 121 343 117 hstem
          363 146 vstem
          520 hmoveto
          121 -303 vlineto
          27 43 83 47 47 26 rrcurveto
          58 33 77 47 94 vvcurveto
          100 -79 70 -136 -120 -94 -57 -38 -36 vhcurveto
          86 -99 rlineto
          39 33 43 38 64 hhcurveto
          60 33 -33 -40 -50 -59 -21 -109 -60 hvcurveto
          -125 -69 -32 -72 -119 vvcurveto
          endchar
        </CharString>
        <CharString name="two.denominator">
          -234 0 78 271 77 hstem
          293 90 vstem
          384 hmoveto
          78 -240 vlineto
          5 31 34 30 68 21 rrcurveto
          53 16 79 31 86 vvcurveto
          83 -57 50 13 callsubr
          27 58 hhcurveto
          55 31 -20 -35 -52 -70 -19 -61 -25 hvcurveto
          -98 69 callsubr
          endchar
        </CharString>
        <CharString name="two.lnum">
          -48 0 121 477 121 hstem
          41 176 188 151 vstem
          557 hmoveto
          121 -340 vlineto
          69 63 41 102 50 vhcurveto
          95 46 79 53 122 vvcurveto
          128 -84 89 -155 -140 -97 -76 -42 -36 vhcurveto
          84 -88 rlineto
          38 35 62 47 75 hhcurveto
          66 39 -38 -60 -94 -94 -31 -87 -42 hvcurveto
          -137 -67 -46 -81 -185 vvcurveto
          endchar
        </CharString>
        <CharString name="two.numerator">
          -240 305 78 271 77 hstem
          293 90 vstem
          371 305 rmoveto
          78 -211 vlineto
          31 24 30 67 20 vhcurveto
          52 16 80 31 87 vvcurveto
          83 -57 50 -107 -100 -65 -42 -27 -21 vhcurveto
          51 -57 rlineto
          22 23 42 27 58 hhcurveto
          55 31 -20 -35 -52 -70 -19 -62 -25 hvcurveto
          -97 69 callsubr
          endchar
        </CharString>
        <CharString name="twoinferior">
          -235 -85 78 271 78 hstem
          293 90 vstem
          384 -85 rmoveto
          78 -244 vlineto
          31 44 28 67 21 vhcurveto
          53 16 79 33 86 vvcurveto
          84 -57 50 13 callsubr
          26 58 hhcurveto
          55 31 -19 -36 -52 -69 -20 -62 -24 hvcurveto
          -99 -39 -33 -49 -110 vvcurveto
          endchar
        </CharString>
        <CharString name="twosuperior">
          -240 389 78 271 78 hstem
          293 90 vstem
          371 389 rmoveto
          78 -231 vlineto
          31 43 28 68 21 vhcurveto
          52 16 80 33 87 vvcurveto
          82 -57 51 13 callsubr
          26 58 hhcurveto
          55 31 -19 -35 -53 -70 -19 -62 -25 hvcurveto
          -97 -39 -34 -50 -109 vvcurveto
          endchar
        </CharString>
        <CharString name="twothirds">
          328 -5 79 -60 -21 189 72 51 78 -30 74 227 77 hstemhm
          298 89 467 95 -81 81 hintmask 0111011100000000
          375 305 rmoveto
          78 -207 vlineto
          31 23 30 66 20 vhcurveto
          51 16 79 31 87 vvcurveto
          83 -56 50 -105 -98 -64 -42 -27 -21 vhcurveto
          50 -57 rlineto
          22 66 callgsubr
          -61 -25 hvcurveto
          -95 69 callsubr
          223 -312 -91 callgsubr
          hintmask 1010111100000000
          566 -52 -40 callgsubr
          hintmask 1011011010000000
          -36 callsubr
        </CharString>
        <CharString name="u">
          -38 -10 114 -89 -21 530 16 callgsubr
          hintmask 10111000
          13 callgsubr
          hintmask 01111000
          -101 callsubr
          hintmask 10111000
          -75 callsubr
        </CharString>
        <CharString name="u.alt">
          -49 -10 114 -83 -21 524 16 callgsubr
          hintmask 01111000
          546 hmoveto
          524 -41 callgsubr
          hintmask 10111000
          -60 -29 -51 -35 -51 hhcurveto
          -70 -21 51 70 hvcurveto
          299 -134 -328 vlineto
          -125 47 -81 126 76 74 33 67 38 vhcurveto
          hintmask 01111000
          -90 vlineto
          endchar
        </CharString>
        <CharString name="uacute">
          -32 callsubr
          428 730 -102 callsubr
          -114 -595 -101 callgsubr
          endchar
        </CharString>
        <CharString name="ubreve">
          -61 callgsubr
          92 60 -60 134 -55 callsubr
          hintmask 10110110
          13 callgsubr
          hintmask 01110110
          -101 callsubr
          hintmask 10110110
          -100 callgsubr
          79 666 rmoveto
          hintmask 10101110
          -91 callsubr
          hintmask 10110110
          -56 callgsubr
        </CharString>
        <CharString name="ucircumflex">
          -32 callsubr
          216 597 -100 callsubr
          75 -639 -101 callgsubr
          endchar
        </CharString>
        <CharString name="udblgrave">
          -32 callsubr
          369 585 -95 callsubr
          98 -740 -101 callgsubr
          endchar
        </CharString>
        <CharString name="udieresis">
          -61 callgsubr
          100 119 49 callgsubr
          -41 -26 callgsubr
          -40 134 hintmask 10110110
          260 604 -99 callsubr
          -120 -614 -74 callsubr
          hintmask 01111001
          -101 callsubr
          hintmask 10111010
          -75 callsubr
        </CharString>
        <CharString name="udotbelow">
          -38 -29 callsubr
          60 -54 callsubr
          49 callgsubr
          46 121 55 134 hintmask 11011110
          13 callgsubr
          hintmask 10111110
          -101 callsubr
          hintmask 11011110
          -100 callgsubr
          136 -186 -90 callgsubr
          endchar
        </CharString>
        <CharString name="ugrave">
          -32 callsubr
          221 -10 -101 callgsubr
          45 595 -85 callgsubr
        </CharString>
        <CharString name="uhungarumlaut">
          -32 callsubr
          221 -10 -101 callgsubr
          102 740 -68 callsubr
          endchar
        </CharString>
        <CharString name="uinvertedbreve">
          -61 callgsubr
          92 134 -60 60 -55 callsubr
          hintmask 10101110
          298 670 rmoveto
          hintmask 10110110
          -92 callsubr
          hintmask 10101110
          -23 callsubr
          -77 -680 -74 callsubr
          hintmask 01110110
          -101 callsubr
          hintmask 10110110
          -75 callsubr
        </CharString>
</ttFont>
